<svg width="301" height="165" viewBox="0 0 301 165" fill="none" xmlns="http://www.w3.org/2000/svg">
    <path d="M15.125 156.6L16.1 157.375C14.5167 159.442 12.3667 160.475 9.65 160.475C7 160.475 4.81667 159.6 3.1 157.85C1.38333 156.083 0.525 153.85 0.525 151.15C0.525 148.45 1.39167 146.225 3.125 144.475C4.85833 142.708 7.04167 141.825 9.675 141.825C10.975 141.825 12.1583 142.05 13.225 142.5C14.2917 142.95 15.1417 143.583 15.775 144.4L14.75 145.35C14.2167 144.683 13.5 144.142 12.6 143.725C11.7167 143.308 10.75 143.1 9.7 143.1C7.4 143.1 5.54167 143.883 4.125 145.45C2.725 147 2.025 148.9 2.025 151.15C2.025 153.4 2.725 155.308 4.125 156.875C5.54167 158.425 7.4 159.2 9.7 159.2C11.9167 159.2 13.725 158.333 15.125 156.6ZM23.3176 160V143.575H17.3676V142.3H30.6926V143.575H24.7426V160H23.3176ZM33.4813 160V142.3H38.4063C40.1563 142.3 41.5646 142.683 42.6313 143.45C43.6979 144.217 44.2312 145.375 44.2312 146.925C44.2312 148.442 43.7063 149.608 42.6563 150.425C41.6063 151.242 40.2146 151.65 38.4813 151.65H34.9063V160H33.4813ZM34.9063 150.425H38.4063C39.7563 150.425 40.8229 150.133 41.6063 149.55C42.4063 148.95 42.8063 148.075 42.8063 146.925C42.8063 145.775 42.4063 144.925 41.6063 144.375C40.8063 143.808 39.7313 143.525 38.3812 143.525H34.9063V150.425ZM44.2951 160L51.9701 142.3H53.3951L60.9201 160H59.3451L57.3451 155.225H47.8701L45.8701 160H44.2951ZM48.3951 153.925H56.8201L52.6451 143.8L48.3951 153.925ZM63.7059 160V142.3H65.1309V150.15H75.4559V142.3H76.8809V160H75.4559V151.475H65.1309V160H63.7059ZM81.7479 160V142.3H83.1729V157.825H83.2229L93.6229 142.3H95.2979V160H93.8729V144.375H93.7979L83.3979 160H81.7479ZM113.93 164.45V160H100.18V142.3H101.605V158.725H111.855V142.3H113.28V158.725H115.28V164.45H113.93ZM116.488 160L124.163 142.3H125.588L133.113 160H131.538L129.538 155.225H120.063L118.063 160H116.488ZM120.588 153.925H129.013L124.838 143.8L120.588 153.925ZM142.148 160V142.3H143.573V150.15H153.898V142.3H155.323V160H153.898V151.475H143.573V160H142.148ZM160.19 160V142.3H170.965V143.575H161.59V150.175H170.365V151.425H161.59V158.725H171.29V160H160.19ZM181.211 160V142.3H182.636V150.15H192.961V142.3H194.386V160H192.961V151.475H182.636V160H181.211ZM197.103 160L204.778 142.3H206.203L213.728 160H212.153L210.153 155.225H200.678L198.678 160H197.103ZM201.203 153.925H209.628L205.453 143.8L201.203 153.925ZM216.513 160V142.3H217.938V157.825H217.988L228.388 142.3H230.063V160H228.638V144.375H228.563L218.163 160H216.513ZM225.638 139.775C225.022 140.342 224.23 140.625 223.263 140.625C222.297 140.625 221.497 140.342 220.863 139.775C220.247 139.192 219.88 138.433 219.763 137.5L220.713 137.325C220.83 138.025 221.122 138.567 221.588 138.95C222.055 139.333 222.613 139.525 223.263 139.525C223.913 139.525 224.472 139.333 224.938 138.95C225.405 138.567 225.697 138.025 225.813 137.325L226.763 137.5C226.647 138.433 226.272 139.192 225.638 139.775ZM232.921 164.45V158.725H234.321C236.454 156.542 237.521 152.692 237.521 147.175V142.3H248.171V158.725H250.196V164.45H248.821V160H234.271V164.45H232.921ZM236.121 158.725H246.746V143.575H238.921V147.175C238.921 152.592 237.988 156.442 236.121 158.725ZM253.55 160V142.3H264.325V143.575H254.95V150.175H263.725V151.425H254.95V158.725H264.65V160H253.55ZM268.32 160V142.3H269.745V150.15H280.07V142.3H281.495V160H280.07V151.475H269.745V160H268.32ZM284.212 160L291.887 142.3H293.312L300.837 160H299.262L297.262 155.225H287.787L285.787 160H284.212ZM288.312 153.925H296.737L292.562 143.8L288.312 153.925Z" fill="#415861"/>
    <path d="M101.48 85.1626H87.0242V105.764H63.6267V85.1626H14V64.1135L56.9204 0.0705872H86.8752V64.86H101.48V85.1626ZM63.7757 64.86V25.7475H63.3286L38.2917 64.86H63.7757Z" fill="#415861"/>
    <path d="M287.96 85.1626H273.505V105.764H250.107V85.1626H200.48V64.1135L243.401 0.0705872H273.356V64.86H287.96V85.1626ZM250.256 64.86V25.7475H249.809L224.772 64.86H250.256Z" fill="#415861"/>
    <path d="M188.199 32.3968C189.72 38.5541 190.48 45.3271 190.48 52.7158C190.48 60.1046 189.72 66.9249 188.199 73.1769C186.773 79.4289 184.539 85.0652 181.497 90.0858C178.55 95.0116 174.462 98.8954 169.233 101.737C164.1 104.579 158.063 106 151.123 106C141.997 106 134.344 103.49 128.165 98.4692C122.08 93.4486 117.755 87.1019 115.188 79.4289C112.716 71.6613 111.48 62.7569 111.48 52.7158C111.48 45.3271 112.193 38.5541 113.619 32.3968C115.141 26.2395 117.422 20.6979 120.464 15.7721C123.506 10.8463 127.642 7.00983 132.87 4.26274C138.099 1.42091 144.183 0 151.123 0C158.063 0 164.1 1.42091 169.233 4.26274C174.462 7.00983 178.55 10.8463 181.497 15.7721C184.539 20.6979 186.773 26.2395 188.199 32.3968ZM165.953 52.7158C165.953 49.0214 165.763 45.5165 165.383 42.2011C165.003 38.7909 164.29 35.3333 163.244 31.8284C162.293 28.3235 160.772 25.5291 158.681 23.445C156.589 21.2663 154.07 20.1769 151.123 20.1769C148.176 20.1769 145.609 21.2663 143.423 23.445C141.331 25.5291 139.763 28.3235 138.717 31.8284C137.766 35.3333 137.053 38.7909 136.578 42.2011C136.198 45.5165 136.008 49.0214 136.008 52.7158C136.008 56.4102 136.198 59.9625 136.578 63.3727C137.053 66.7828 137.766 70.2877 138.717 73.8874C139.763 77.3923 141.331 80.2341 143.423 82.4129C145.514 84.4969 148.081 85.5389 151.123 85.5389C154.07 85.5389 156.589 84.4969 158.681 82.4129C160.772 80.2341 162.293 77.3923 163.244 73.8874C164.29 70.2877 165.003 66.8302 165.383 63.5147C165.763 60.1046 165.953 56.5049 165.953 52.7158Z" fill="#FFB71B"/>
</svg>