<svg width="25" height="25" viewBox="0 0 25 25" fill="none" xmlns="http://www.w3.org/2000/svg">
    <path fill-rule="evenodd" clip-rule="evenodd" d="M11.5208 3.30415C6.43057 3.30415 2.30415 7.43057 2.30415 12.5208C2.30415 17.611 6.43057 21.7374 11.5208 21.7374C14.4156 21.7374 16.9982 20.4041 18.6897 18.3137C19.09 17.8191 19.8154 17.7426 20.31 18.1429C20.8046 18.5431 20.8811 19.2685 20.4809 19.7632C18.3707 22.3709 15.1404 24.0415 11.5208 24.0415C5.15802 24.0415 0 18.8835 0 12.5208C0 6.15802 5.15802 1 11.5208 1C17.4359 1 22.3098 5.45777 22.9663 11.1971L23.0332 11.1302C23.483 10.6802 24.2125 10.6801 24.6624 11.13C25.1124 11.5798 25.1125 12.3093 24.6627 12.7592L22.3592 15.0634C22.1432 15.2795 21.8502 15.4009 21.5446 15.401C21.2391 15.401 20.946 15.2797 20.7299 15.0636L18.4251 12.7595C17.9751 12.3096 17.975 11.5802 18.4249 11.1302C18.8747 10.6802 19.6042 10.6801 20.0541 11.13L20.7084 11.784C20.333 7.03827 16.363 3.30415 11.5208 3.30415ZM11.5208 5.60831C12.157 5.60831 12.6728 6.12411 12.6728 6.76038V11.9042L15.616 13.8663C16.1455 14.2193 16.2885 14.9346 15.9356 15.464C15.5826 15.9934 14.8673 16.1364 14.3379 15.7835L10.8817 13.4793C10.5612 13.2657 10.3687 12.906 10.3687 12.5208V6.76038C10.3687 6.12411 10.8845 5.60831 11.5208 5.60831Z" fill="#415861"/>
</svg>