<svg width="84" height="40" viewBox="0 0 84 40" fill="none" xmlns="http://www.w3.org/2000/svg">
    <path d="M31.2612 26.5785C30.7054 26.5785 30.194 26.4904 29.7715 26.3361C29.3491 26.1598 28.9933 25.9394 28.7043 25.6309C28.4152 25.3223 28.2151 24.9697 28.0595 24.551C27.9039 24.1322 27.8372 23.6915 27.8372 23.1846V22.9201C27.8372 22.4573 27.9261 22.0386 28.0817 21.6419C28.2596 21.2452 28.4819 20.9146 28.7932 20.6501C29.1045 20.3857 29.4603 20.1653 29.8605 20.011C30.2829 19.8568 30.7276 19.7686 31.239 19.7686C31.7281 19.7686 32.195 19.8347 32.6175 19.989C33.0399 20.1433 33.3957 20.3636 33.6847 20.6281C33.9738 20.8926 34.2184 21.2232 34.3962 21.6198C34.5741 22.0165 34.6408 22.4353 34.6408 22.8981V23.1625C34.6408 23.6694 34.5741 24.1102 34.4407 24.5289C34.3073 24.9477 34.0849 25.3003 33.7959 25.6088C33.5069 25.9174 33.1511 26.1377 32.7287 26.3141C32.3062 26.4904 31.8171 26.5785 31.2612 26.5785ZM31.239 20.7824C30.5053 20.7824 29.9494 20.9807 29.5714 21.3774C29.1934 21.7741 29.0156 22.303 29.0156 22.9642V23.1846C29.0156 23.5372 29.06 23.8457 29.1267 24.1543C29.1934 24.4408 29.3268 24.7052 29.5047 24.9256C29.6826 25.146 29.9049 25.3223 30.194 25.4325C30.483 25.5647 30.8165 25.6088 31.239 25.6088C31.6614 25.6088 32.0172 25.5427 32.3062 25.4325C32.5953 25.3223 32.8176 25.146 32.9955 24.9477C33.1733 24.7273 33.2845 24.4849 33.3735 24.1763C33.4402 23.8678 33.4846 23.5592 33.4846 23.1846V22.9642C33.4846 22.303 33.3068 21.7741 32.9288 21.3995C32.5286 20.9807 31.9727 20.7824 31.239 20.7824Z" fill="#0EAE91"/>
    <path fill-rule="evenodd" clip-rule="evenodd" d="M29.9251 20.1796C29.5464 20.3258 29.2087 20.5349 28.912 20.7869C28.6275 21.0287 28.4199 21.3336 28.2501 21.7111C28.103 22.0874 28.0195 22.4828 28.0195 22.9201V23.1846C28.0195 23.6752 28.0839 24.0941 28.2306 24.4887C28.3799 24.8904 28.5688 25.2209 28.838 25.5083C29.104 25.7922 29.4344 25.9992 29.8385 26.1683C30.2375 26.3134 30.7257 26.3982 31.2612 26.3982C31.7977 26.3982 32.262 26.3131 32.6577 26.1479C33.0636 25.9785 33.3953 25.771 33.6621 25.4862C33.9351 25.1948 34.1424 24.865 34.2667 24.4747C34.394 24.0752 34.4584 23.6529 34.4584 23.1625V22.8981C34.4584 22.4528 34.3943 22.0605 34.2295 21.693C34.0617 21.3187 33.8317 21.0083 33.5609 20.7605C33.2897 20.5124 32.9547 20.3044 32.5543 20.1582C32.1567 20.013 31.7121 19.9489 31.2389 19.9489C30.7508 19.9489 30.3279 20.0327 29.9251 20.1796ZM29.7973 19.8418C30.2389 19.6806 30.7049 19.5882 31.2389 19.5882C31.7441 19.5882 32.2333 19.6565 32.6806 19.8198C33.1251 19.9821 33.5016 20.2149 33.8085 20.4957C34.1158 20.7769 34.375 21.1276 34.5629 21.5467C34.7538 21.9726 34.8231 22.4178 34.8231 22.8981V23.1625C34.8231 23.6859 34.7541 24.1451 34.6146 24.5831C34.4721 25.0303 34.2347 25.4057 33.9296 25.7314C33.6183 26.0637 33.2386 26.297 32.7995 26.4802C32.3504 26.6676 31.8363 26.7589 31.2612 26.7589C30.6867 26.7589 30.1535 26.6679 29.7083 26.5053L29.7044 26.5038L29.7006 26.5022C29.2616 26.319 28.8818 26.0857 28.5705 25.7534C28.2616 25.4237 28.0503 25.049 27.8883 24.6132C27.7237 24.1704 27.6548 23.7077 27.6548 23.1846V22.9201C27.6548 22.4333 27.7485 21.9925 27.9117 21.5766L27.9133 21.5727L27.915 21.5688C28.1007 21.1547 28.3373 20.7997 28.6744 20.5133C28.9998 20.2368 29.3731 20.0053 29.7942 19.843L29.7973 19.8418L29.7973 19.8418ZM29.4387 21.2537C29.8615 20.81 30.4724 20.602 31.2389 20.602C32.0064 20.602 32.6157 20.8105 33.0596 21.2738C33.4805 21.6921 33.6669 22.2725 33.6669 22.9642V23.1846C33.6669 23.5747 33.6204 23.8962 33.5517 24.214L33.5505 24.2199L33.5488 24.2258C33.4554 24.5495 33.3352 24.8157 33.1379 25.0602L33.135 25.0638L33.1319 25.0673C32.9392 25.2821 32.6938 25.478 32.3718 25.6008C32.0588 25.7201 31.6804 25.7892 31.2389 25.7892C30.8083 25.7892 30.4456 25.745 30.1228 25.5987C29.8027 25.4754 29.5565 25.279 29.3622 25.0381C29.1679 24.7975 29.0221 24.5086 28.949 24.1947L28.9484 24.192L28.9484 24.192C28.8798 23.8747 28.8332 23.5531 28.8332 23.1846V22.9642C28.8332 22.27 29.0208 21.6923 29.4387 21.2537ZM31.2389 20.9627C30.5381 20.9627 30.0373 21.1514 29.7041 21.5011C29.366 21.8559 29.1979 22.336 29.1979 22.9642V23.1846C29.1979 23.5207 29.2401 23.8158 29.3047 24.1152C29.3652 24.3738 29.486 24.6133 29.6472 24.8131C29.8075 25.0117 30.0043 25.1669 30.2595 25.2642L30.2651 25.2663L30.2705 25.2688C30.5244 25.385 30.8271 25.4285 31.2389 25.4285C31.6424 25.4285 31.9755 25.3653 32.2406 25.2642C32.495 25.1672 32.6933 25.0119 32.8559 24.8315C33.0116 24.6374 33.1127 24.4212 33.1964 24.1326C33.2604 23.8354 33.3023 23.5413 33.3023 23.1846V22.9642C33.3023 22.3345 33.1334 21.8577 32.7997 21.5268L32.7979 21.5251L32.7962 21.5233C32.4398 21.1504 31.938 20.9627 31.2389 20.9627Z" fill="#0EAE91"/>
    <path d="M40.3328 26.4463V20.8926H37.0866V26.4463H35.9526V19.9008H41.4667V26.4463H40.3328Z" fill="#0EAE91"/>
    <path fill-rule="evenodd" clip-rule="evenodd" d="M35.7703 19.7205H41.649V26.6266H40.1504V21.0729H37.2689V26.6266H35.7703V19.7205ZM36.1349 20.0812V26.2659H36.9042V20.7122H40.5151V26.2659H41.2843V20.0812H36.1349Z" fill="#0EAE91"/>
    <path d="M48.1147 26.4463H43.0009V19.9008H48.1592L47.8257 20.8926H44.1348V22.4793H47.4922V23.4711H44.1348V25.4546H48.1369L48.1147 26.4463Z" fill="#0EAE91"/>
    <path fill-rule="evenodd" clip-rule="evenodd" d="M42.8185 19.7205H48.412L47.9571 21.0729H44.3171V22.299H47.6745V23.6514H44.3171V25.2742H48.3233L48.293 26.6266H42.8185V19.7205ZM43.1832 20.0812V26.2659H47.9363L47.9505 25.6349H43.9524V23.2907H47.3098V22.6597H43.9524V20.7122H47.6941L47.9063 20.0812H43.1832Z" fill="#0EAE91"/>
    <path d="M49.5154 26.4463V19.9008H52.9839C53.3174 19.9008 53.6065 19.9449 53.851 20.0551C54.0956 20.1653 54.318 20.2975 54.4958 20.4738C54.6737 20.6501 54.7849 20.8705 54.8738 21.113C54.9627 21.3554 55.0072 21.6419 55.0072 21.9284C55.0072 22.2369 54.9627 22.5234 54.8738 22.7879C54.7849 23.0523 54.6737 23.2727 54.4958 23.4711C54.3402 23.6694 54.1178 23.8237 53.8733 23.9339C53.6287 24.0441 53.3174 24.1102 52.9839 24.1102H50.6493V26.4683L49.5154 26.4463ZM50.6493 20.8705V23.0744H52.5837C53.0284 23.0744 53.3619 22.9862 53.562 22.7879C53.7621 22.6116 53.8733 22.303 53.8733 21.9063C53.8733 21.5317 53.7621 21.2672 53.5398 21.0909C53.3174 20.9366 53.0061 20.8485 52.5837 20.8485L50.6493 20.8705Z" fill="#0EAE91"/>
    <path fill-rule="evenodd" clip-rule="evenodd" d="M49.333 19.7205H52.9839C53.332 19.7205 53.6497 19.7662 53.9266 19.891C54.1822 20.0061 54.4259 20.1492 54.6249 20.3464C54.8298 20.5496 54.9523 20.7981 55.0452 21.0514C55.1426 21.317 55.1895 21.6249 55.1895 21.9284C55.1895 22.2542 55.1425 22.5601 55.0468 22.8448C54.9534 23.1226 54.8329 23.3655 54.6361 23.5864C54.4579 23.8114 54.2104 23.9802 53.9488 24.098C53.6778 24.2201 53.3403 24.2905 52.9839 24.2905H50.8316V26.6522L49.333 26.6231V19.7205ZM49.6977 20.0812V26.2694L50.4669 26.2844V23.9298H52.9839C53.2945 23.9298 53.5795 23.868 53.7977 23.7698C54.0234 23.6681 54.2189 23.5297 54.3517 23.3605L54.3554 23.3558L54.3594 23.3514C54.5161 23.1767 54.6169 22.9802 54.7008 22.731C54.7829 22.4867 54.8248 22.2196 54.8248 21.9284C54.8248 21.6588 54.7828 21.3937 54.7024 21.1745C54.6174 20.9429 54.5175 20.7507 54.3667 20.6012C54.21 20.4458 54.009 20.3244 53.7754 20.2192C53.5632 20.1236 53.3028 20.0812 52.9839 20.0812H49.6977ZM52.5837 20.6681C53.0304 20.6681 53.3822 20.7613 53.6444 20.9433L53.6492 20.9466L53.6538 20.9502C53.9313 21.1702 54.0556 21.4942 54.0556 21.9063C54.0556 22.3281 53.9385 22.6948 53.6872 22.919C53.4348 23.1662 53.041 23.2547 52.5837 23.2547H50.4669V20.6922L52.5837 20.6681ZM52.5847 21.0288L50.8316 21.0488V22.894H52.5837C53.0133 22.894 53.285 22.8071 53.4329 22.6605L53.4367 22.6567L53.4407 22.6532C53.5868 22.5244 53.6909 22.2757 53.6909 21.9063C53.6909 21.5722 53.5946 21.3679 53.4302 21.2352C53.248 21.1106 52.9788 21.029 52.5847 21.0288Z" fill="#0EAE91"/>
    <path d="M57.4753 24.573L56.7415 26.4463H55.5409L58.1423 19.8788H59.4986L62.2556 26.4242H61.0772L60.299 24.551L57.4753 24.573ZM57.831 23.6474H59.9432L59.0316 21.4435L58.876 20.7163L58.7204 21.4435L57.831 23.6474Z" fill="#0EAE91"/>
    <path fill-rule="evenodd" clip-rule="evenodd" d="M58.0178 19.6984H59.6201L62.529 26.6046H60.9549L60.1771 24.7323L57.6005 24.7524L56.8664 26.6266H55.2736L58.0178 19.6984ZM58.2666 20.0591L55.8081 26.2659H56.6166L57.3499 24.3936L60.4207 24.3697L61.1993 26.2439H61.982L59.3769 20.0591H58.9217L59.2066 21.3903L60.2148 23.8277H57.5618L58.5452 21.391L58.8302 20.0591H58.2666ZM58.8761 21.544L58.1001 23.467H59.6716L58.8761 21.544Z" fill="#0EAE91"/>
    <path d="M66.2577 20.8705V26.4242H65.1238V20.8705H62.9004V19.8788H68.5923L68.2588 20.8705H66.2577Z" fill="#0EAE91"/>
    <path fill-rule="evenodd" clip-rule="evenodd" d="M62.718 19.6984H68.8451L68.3903 21.0509H66.4401V26.6046H64.9414V21.0509H62.718V19.6984ZM63.0827 20.0591V20.6902H65.3061V26.2439H66.0754V20.6902H68.1273L68.3395 20.0591H63.0827Z" fill="#0EAE91"/>
    <path d="M72.8168 26.5344C72.2609 26.5344 71.7495 26.4463 71.3271 26.292C70.9046 26.1157 70.5489 25.8953 70.2598 25.5868C69.9708 25.2782 69.7707 24.9256 69.615 24.5069C69.4594 24.0882 69.3927 23.6474 69.3927 23.1405V22.876C69.3927 22.4132 69.4816 21.9945 69.6373 21.5978C69.8151 21.2011 70.0375 20.8705 70.3488 20.6061C70.66 20.3416 71.0158 20.1212 71.416 19.9669C71.8384 19.8127 72.2831 19.7245 72.7945 19.7245C73.2837 19.7245 73.7506 19.7906 74.173 19.9449C74.5955 20.0992 74.9512 20.3196 75.2403 20.584C75.5293 20.8485 75.7739 21.1791 75.9518 21.5758C76.1296 21.9725 76.1963 22.3912 76.1963 22.854V23.1185C76.1963 23.6253 76.1296 24.0661 75.9962 24.4848C75.8628 24.9036 75.6405 25.2562 75.3514 25.5647C75.0624 25.8733 74.7067 26.0937 74.2842 26.27C73.8618 26.4463 73.3726 26.5344 72.8168 26.5344ZM72.7945 20.7383C72.0608 20.7383 71.5049 20.9366 71.127 21.3333C70.749 21.73 70.5711 22.259 70.5711 22.8981V23.1185C70.5711 23.4711 70.6156 23.7796 70.6823 24.0882C70.749 24.3747 70.8824 24.6391 71.0603 24.8595C71.2381 25.0799 71.4605 25.2562 71.7495 25.3664C72.0386 25.4986 72.3721 25.5427 72.7945 25.5427C73.217 25.5427 73.5727 25.4766 73.8618 25.3664C74.1508 25.2562 74.3731 25.0799 74.551 24.8815C74.7289 24.6612 74.8401 24.4187 74.929 24.1102C74.9957 23.8017 75.0402 23.4931 75.0402 23.1185V22.8981C75.0402 22.2369 74.8623 21.708 74.4843 21.3333C74.0841 20.9366 73.5282 20.7383 72.7945 20.7383Z" fill="#0EAE91"/>
    <path fill-rule="evenodd" clip-rule="evenodd" d="M71.4807 20.1356C71.102 20.2818 70.7643 20.4908 70.4675 20.7429C70.183 20.9846 69.9754 21.2895 69.8057 21.667C69.6585 22.0433 69.575 22.4387 69.575 22.876V23.1405C69.575 23.6311 69.6395 24.05 69.7862 24.4447C69.9354 24.8463 70.1243 25.1768 70.3936 25.4642C70.6595 25.7481 70.99 25.9552 71.3941 26.1242C71.7931 26.2693 72.2813 26.3541 72.8167 26.3541C73.3533 26.3541 73.8175 26.269 74.2133 26.1038C74.6192 25.9344 74.9509 25.727 75.2177 25.4422C75.4907 25.1507 75.698 24.8209 75.8223 24.4307C75.9496 24.0312 76.014 23.6089 76.014 23.1185V22.854C76.014 22.4087 75.9499 22.0164 75.7851 21.6489C75.6172 21.2746 75.3872 20.9642 75.1164 20.7164C74.8453 20.4683 74.5103 20.2603 74.1098 20.1141C73.7122 19.9689 73.2676 19.9049 72.7945 19.9049C72.3064 19.9049 71.8835 19.9887 71.4807 20.1356ZM71.3528 19.7978C71.7944 19.6365 72.2605 19.5442 72.7945 19.5442C73.2997 19.5442 73.7889 19.6124 74.2362 19.7757C74.6806 19.938 75.0571 20.1708 75.3641 20.4516C75.6713 20.7328 75.9305 21.0835 76.1184 21.5026C76.3094 21.9285 76.3786 22.3737 76.3786 22.854V23.1185C76.3786 23.6418 76.3097 24.1011 76.1701 24.5391C76.0276 24.9862 75.7902 25.3617 75.4852 25.6873C75.1739 26.0196 74.7941 26.2529 74.3551 26.4361C73.906 26.6236 73.3919 26.7148 72.8167 26.7148C72.2422 26.7148 71.7091 26.6238 71.2639 26.4612L71.26 26.4598L71.2562 26.4582C70.8171 26.2749 70.4374 26.0417 70.1261 25.7094C69.8172 25.3797 69.6059 25.0049 69.4439 24.5691C69.2793 24.1263 69.2103 23.6637 69.2103 23.1405V22.876C69.2103 22.3893 69.3041 21.9485 69.4672 21.5326L69.4688 21.5286L69.4706 21.5247C69.6562 21.1106 69.8929 20.7556 70.2299 20.4693C70.5554 20.1928 70.9286 19.9612 71.3498 19.7989L71.3528 19.7977L71.3528 19.7978ZM70.9942 21.2096C71.417 20.7659 72.0279 20.5579 72.7945 20.5579C73.5626 20.5579 74.1702 20.7667 74.6134 21.2059C75.0355 21.6244 75.2225 22.2054 75.2225 22.8981V23.1185C75.2225 23.5086 75.176 23.8301 75.1073 24.1479L75.106 24.1538L75.1043 24.1596C75.011 24.4834 74.8908 24.7496 74.6935 24.9941L74.6905 24.9977L74.6874 25.0012C74.4948 25.216 74.2493 25.4119 73.9273 25.5347C73.6144 25.654 73.2359 25.7231 72.7945 25.7231C72.3638 25.7231 72.0011 25.6789 71.6784 25.5326C71.3582 25.4093 71.1121 25.2128 70.9177 24.972C70.7235 24.7314 70.5776 24.4425 70.5046 24.1286L70.5039 24.1259L70.5039 24.1259C70.4353 23.8086 70.3887 23.487 70.3887 23.1185V22.8981C70.3887 22.225 70.5769 21.6477 70.9942 21.2096ZM72.7945 20.9186C72.0936 20.9186 71.5928 21.1073 71.2596 21.457C70.921 21.8124 70.7534 22.2929 70.7534 22.8981V23.1185C70.7534 23.4546 70.7956 23.7497 70.8603 24.049C70.9207 24.3077 71.0415 24.5472 71.2027 24.747C71.363 24.9456 71.5598 25.1008 71.8151 25.1981L71.8206 25.2002L71.826 25.2027C72.08 25.3189 72.3827 25.3624 72.7945 25.3624C73.1979 25.3624 73.531 25.2992 73.7961 25.1981C74.0506 25.1011 74.2489 24.9458 74.4114 24.7654C74.5672 24.5713 74.6683 24.3551 74.7519 24.0665C74.8159 23.7693 74.8578 23.4752 74.8578 23.1185V22.8981C74.8578 22.2684 74.689 21.7916 74.3552 21.4607C73.998 21.1066 73.4938 20.9186 72.7945 20.9186Z" fill="#0EAE91"/>
    <path d="M77.5082 26.4022V19.8568H80.9767C81.3102 19.8568 81.5993 19.9008 81.8438 20.011C82.0884 20.1212 82.3108 20.2534 82.4886 20.4297C82.6665 20.6061 82.7777 20.8264 82.8666 21.0689C82.9555 21.3113 83 21.5978 83 21.8843C83 22.1928 82.9555 22.4793 82.8666 22.7438C82.7777 23.0083 82.6665 23.2286 82.4886 23.427C82.333 23.6253 82.1106 23.7796 81.8661 23.8898C81.6215 24 81.3102 24.0661 80.9767 24.0661H78.6421V26.4242L77.5082 26.4022ZM78.6421 20.8264V23.0303H80.5765C81.0212 23.0303 81.3547 22.9421 81.5548 22.7438C81.7549 22.5675 81.8661 22.2589 81.8661 21.8623C81.8661 21.4876 81.7549 21.2231 81.5326 21.0468C81.3102 20.8926 80.9989 20.8044 80.5765 20.8044L78.6421 20.8264Z" fill="#0EAE91"/>
    <path fill-rule="evenodd" clip-rule="evenodd" d="M77.3258 19.6764H80.9767C81.3248 19.6764 81.6425 19.7221 81.9194 19.8469C82.175 19.9621 82.4187 20.1051 82.6177 20.3024C82.8226 20.5055 82.9451 20.7541 83.038 21.0074C83.1354 21.2729 83.1823 21.5808 83.1823 21.8843C83.1823 22.2101 83.1353 22.5161 83.0396 22.8007C82.9462 23.0785 82.8257 23.3215 82.6289 23.5423C82.4507 23.7674 82.2032 23.9361 81.9416 24.0539C81.6706 24.176 81.3331 24.2465 80.9767 24.2465H78.8244V26.6082L77.3258 26.579V19.6764ZM77.6905 20.0371V26.2254L78.4597 26.2403V23.8858H80.9767C81.2873 23.8858 81.5723 23.824 81.7904 23.7257C82.0162 23.624 82.2117 23.4857 82.3445 23.3164L82.3482 23.3118L82.3522 23.3073C82.5089 23.1326 82.6097 22.9362 82.6935 22.6869C82.7757 22.4426 82.8176 22.1755 82.8176 21.8843C82.8176 21.6148 82.7756 21.3497 82.6952 21.1304C82.6102 20.8988 82.5103 20.7066 82.3595 20.5571C82.2028 20.4018 82.0018 20.2804 81.7682 20.1751C81.556 20.0795 81.2956 20.0371 80.9767 20.0371H77.6905ZM80.5765 20.6241C81.0232 20.6241 81.375 20.7172 81.6372 20.8992L81.642 20.9025L81.6466 20.9061C81.924 21.1261 82.0484 21.4501 82.0484 21.8623C82.0484 22.284 81.9313 22.6508 81.68 22.8749C81.4276 23.1222 81.0338 23.2107 80.5765 23.2107H78.4597V20.6482L80.5765 20.6241ZM80.5775 20.9848L78.8244 21.0047V22.85H80.5765C81.0061 22.85 81.2778 22.763 81.4257 22.6164L81.4295 22.6127L81.4335 22.6091C81.5796 22.4804 81.6837 22.2317 81.6837 21.8623C81.6837 21.5281 81.5874 21.3238 81.423 21.1911C81.2408 21.0666 80.9716 20.9849 80.5775 20.9848Z" fill="#0EAE91"/>
    <path d="M32.4618 31.2066C32.8175 31.3829 33.1066 31.5813 33.2845 31.8457C33.4846 32.1102 33.5735 32.4187 33.5735 32.8154C33.5735 33.146 33.5068 33.4325 33.3956 33.6529C33.2845 33.8953 33.1066 34.0716 32.9065 34.2259C32.7064 34.3802 32.4396 34.4904 32.1728 34.5565C31.8837 34.6226 31.5947 34.6667 31.2612 34.6667H28.0594V28.1212H31.1055C31.3946 28.1212 31.6836 28.1433 31.9282 28.2094C32.1728 28.2755 32.3951 28.3857 32.573 28.5179C32.7508 28.6501 32.9065 28.8264 32.9954 29.0468C33.1066 29.2672 33.1511 29.5096 33.1511 29.8182C33.1511 30.3691 32.9287 30.8099 32.4618 31.1405V31.2066ZM30.9943 30.7879C31.2834 30.7879 31.528 30.7218 31.7058 30.5675C31.8837 30.4353 31.9727 30.1708 31.9727 29.8182C31.9727 29.5317 31.8837 29.3554 31.7281 29.2452C31.5502 29.157 31.3279 29.113 31.0388 29.113H29.2156V30.7658L30.9943 30.7879ZM29.2156 31.7796V33.697H31.2612C31.6836 33.697 31.9949 33.6088 32.195 33.4325C32.3951 33.2562 32.484 33.0138 32.484 32.7052C32.484 32.3747 32.3951 32.1322 32.195 32C31.9949 31.8457 31.7058 31.7796 31.3056 31.7796H29.2156Z" fill="#0EAE91"/>
    <path fill-rule="evenodd" clip-rule="evenodd" d="M27.8771 27.9409H31.1055C31.4015 27.9409 31.709 27.9632 31.9762 28.0354C32.2427 28.1074 32.4859 28.2276 32.6825 28.3737C32.8793 28.52 33.0576 28.719 33.1619 28.973C33.2871 29.2243 33.3334 29.4949 33.3334 29.8182C33.3334 30.3537 33.1396 30.8017 32.7421 31.1501C33.0231 31.3087 33.2671 31.4964 33.4334 31.7417C33.6603 32.0434 33.7558 32.3915 33.7558 32.8154C33.7558 33.1676 33.6852 33.4814 33.5603 33.7304C33.4318 34.0088 33.2292 34.2058 33.0186 34.3681C32.7921 34.5427 32.4994 34.6614 32.217 34.7314L32.2138 34.7322C31.9153 34.8005 31.612 34.847 31.2611 34.847H27.8771V27.9409ZM28.2418 28.3016V34.4863H31.2611C31.5767 34.4863 31.8511 34.4449 32.13 34.3811C32.3807 34.3188 32.6209 34.2174 32.7944 34.0837C32.9832 33.9381 33.1356 33.7833 33.2295 33.5784L33.2309 33.5754L33.2324 33.5724C33.3289 33.3811 33.3911 33.1231 33.3911 32.8154C33.3911 32.4479 33.3096 32.18 33.1384 31.9538L33.1354 31.9498L33.1326 31.9456C32.9811 31.7204 32.7262 31.5394 32.3801 31.3679L32.2794 31.318V31.0478L32.3556 30.9939C32.7743 30.6975 32.9687 30.3115 32.9687 29.8182C32.9687 29.5273 32.9268 29.3149 32.8322 29.1274L32.8288 29.1206L32.826 29.1137C32.752 28.9302 32.6205 28.7789 32.4634 28.6621C32.3042 28.5437 32.1028 28.4435 31.8801 28.3833C31.6581 28.3233 31.3875 28.3016 31.1055 28.3016H28.2418ZM29.0332 28.9326H31.0388C31.3456 28.9326 31.5985 28.9792 31.8097 29.0839L31.8225 29.0903L31.8342 29.0985C32.0502 29.2515 32.155 29.4907 32.155 29.8182C32.155 30.1856 32.0648 30.5221 31.821 30.7074C31.5988 30.8974 31.3067 30.9682 30.9943 30.9682H30.992L29.0332 30.944V28.9326ZM29.3979 29.2933V30.5877L30.9954 30.6075C31.2582 30.6074 31.4529 30.547 31.5856 30.4319L31.5908 30.4274L31.5963 30.4233C31.704 30.3433 31.7903 30.1532 31.7903 29.8182C31.7903 29.5822 31.7227 29.4683 31.6329 29.3999C31.49 29.3323 31.3017 29.2933 31.0388 29.2933H29.3979ZM29.0332 31.5993H31.3056C31.7174 31.5993 32.0544 31.6657 32.3019 31.8538C32.5718 32.0356 32.6663 32.3516 32.6663 32.7052C32.6663 33.0503 32.5652 33.3478 32.3163 33.5672C32.0681 33.7858 31.7038 33.8773 31.2611 33.8773H29.0332V31.5993ZM29.3979 31.96V33.5166H31.2611C31.6634 33.5166 31.9216 33.4318 32.0737 33.2978C32.2249 33.1646 32.3017 32.9773 32.3017 32.7052C32.3017 32.4002 32.2196 32.2332 32.0937 32.15L32.0881 32.1463L32.0829 32.1422C31.9306 32.0249 31.6913 31.96 31.3056 31.96H29.3979Z" fill="#0EAE91"/>
    <path d="M34.8854 34.6667V28.1212H36.4195L38.3984 32.7052L40.355 28.1212H41.8669V34.6667H40.733V29.73L38.9542 33.8953H37.8648L36.0638 29.6198V34.6667H34.8854Z" fill="#0EAE91"/>
    <path fill-rule="evenodd" clip-rule="evenodd" d="M34.703 27.9409H36.5399L38.3974 32.2438L40.234 27.9409H42.0492V34.847H40.5506V30.6205L39.0751 34.0757H37.7432L36.2461 30.5217V34.847H34.703V27.9409ZM35.0677 28.3016V34.4863H35.8814V28.718L37.9863 33.715H38.8333L40.9153 28.8395V34.4863H41.6845V28.3016H40.4759L38.3993 33.1667L36.2991 28.3016H35.0677Z" fill="#0EAE91"/>
    <path d="M43.3566 34.6667V28.1212H46.8251C47.1586 28.1212 47.4476 28.1653 47.6922 28.2755C47.9368 28.3857 48.1591 28.5179 48.337 28.6942C48.5149 28.8705 48.6261 29.0909 48.715 29.3333C48.8039 29.5758 48.8484 29.8623 48.8484 30.1488C48.8484 30.4573 48.8039 30.7438 48.715 31.0083C48.6261 31.2727 48.5149 31.4931 48.337 31.6915C48.1814 31.8898 47.959 32.0441 47.7145 32.1543C47.4699 32.2645 47.1586 32.3306 46.8251 32.3306H44.4905V34.6887L43.3566 34.6667ZM44.4905 29.0909V31.2948H46.4249C46.8696 31.2948 47.2031 31.2066 47.4032 31.0083C47.6033 30.832 47.7145 30.5234 47.7145 30.1267C47.7145 29.7521 47.6033 29.4876 47.3809 29.3113C47.1586 29.157 46.8473 29.0689 46.4249 29.0689L44.4905 29.0909Z" fill="#0EAE91"/>
    <path fill-rule="evenodd" clip-rule="evenodd" d="M43.1742 27.9409H46.8251C47.1732 27.9409 47.4909 27.9866 47.7678 28.1114C48.0234 28.2265 48.2671 28.3696 48.4661 28.5668C48.671 28.77 48.7934 29.0185 48.8864 29.2718C48.9838 29.5374 49.0307 29.8453 49.0307 30.1488C49.0307 30.4746 48.9837 30.7805 48.888 31.0652C48.7946 31.343 48.6741 31.5859 48.4773 31.8067C48.2991 32.0318 48.0516 32.2005 47.79 32.3184C47.519 32.4405 47.1815 32.5109 46.8251 32.5109H44.6728V34.8726L43.1742 34.8435V27.9409ZM43.5389 28.3016V34.4898L44.3081 34.5048V32.1502H46.8251C47.1357 32.1502 47.4207 32.0884 47.6388 31.9902C47.8646 31.8884 48.0601 31.7501 48.1929 31.5809L48.1966 31.5762L48.2006 31.5718C48.3572 31.3971 48.4581 31.2006 48.5419 30.9513C48.6241 30.7071 48.666 30.44 48.666 30.1488C48.666 29.8792 48.624 29.6141 48.5436 29.3949C48.4586 29.1633 48.3587 28.9711 48.2079 28.8216C48.0511 28.6662 47.8501 28.5448 47.6166 28.4396C47.4043 28.344 47.1439 28.3016 46.8251 28.3016H43.5389ZM46.4248 28.8885C46.8716 28.8885 47.2234 28.9817 47.4856 29.1637L47.4904 29.167L47.495 29.1706C47.7724 29.3906 47.8968 29.7146 47.8968 30.1267C47.8968 30.5485 47.7797 30.9152 47.5284 31.1394C47.276 31.3866 46.8822 31.4751 46.4248 31.4751H44.3081V28.9126L46.4248 28.8885ZM46.4259 29.2492L44.6728 29.2692V31.1144H46.4248C46.8545 31.1144 47.1262 31.0275 47.2741 30.8809L47.2779 30.8771L47.2819 30.8736C47.428 30.7448 47.5321 30.4961 47.5321 30.1267C47.5321 29.7926 47.4358 29.5883 47.2714 29.4556C47.0892 29.331 46.82 29.2494 46.4259 29.2492Z" fill="#0EAE91"/>
    <path d="M50.4938 30.7879V28.9366H51.6944V29.113H50.7161V30.7659L50.4938 30.7879Z" fill="#10AE8F"/>
    <path d="M52.9617 30.832C52.6727 30.832 52.4503 30.7438 52.2502 30.5455C52.0723 30.3692 51.9834 30.1267 51.9612 29.8402C51.9612 29.5537 52.0501 29.3333 52.228 29.135C52.4059 28.9366 52.6504 28.8705 52.9395 28.8705C53.2285 28.8705 53.4731 28.9587 53.651 29.135C53.8288 29.3113 53.9178 29.5537 53.94 29.8402C53.94 30.1267 53.8511 30.3471 53.6732 30.5455C53.4953 30.7438 53.2508 30.832 52.9617 30.832ZM52.9617 30.6336C53.1841 30.6336 53.3842 30.5675 53.5176 30.4132C53.651 30.259 53.7177 30.0827 53.7177 29.8623C53.7177 29.6419 53.651 29.4435 53.5176 29.2893C53.3842 29.135 53.2063 29.0689 52.9617 29.0689C52.7394 29.0689 52.5615 29.135 52.4059 29.2893C52.2725 29.4435 52.2058 29.6198 52.2058 29.8623C52.2058 30.0827 52.2725 30.281 52.4059 30.4132C52.5615 30.5675 52.7394 30.6336 52.9617 30.6336Z" fill="#10AE8F"/>
    <path d="M56.0301 29.1791L55.8966 29.3113C55.8299 29.2452 55.7632 29.1791 55.6743 29.135C55.5854 29.0909 55.4742 29.0689 55.3853 29.0689C55.1629 29.0689 54.9851 29.135 54.8516 29.2893C54.7182 29.4435 54.6515 29.6198 54.6515 29.8402C54.6515 30.0606 54.7182 30.259 54.8516 30.3912C54.9851 30.5455 55.1629 30.6116 55.3853 30.6116C55.6076 30.6116 55.7855 30.5455 55.9189 30.3912L56.0523 30.5234C55.8744 30.7218 55.6521 30.8099 55.3853 30.8099C55.0962 30.8099 54.8739 30.7218 54.696 30.5455C54.5181 30.3692 54.4292 30.1267 54.4292 29.8402C54.4292 29.5537 54.5181 29.3333 54.696 29.135C54.8739 28.9587 55.0962 28.8705 55.3853 28.8705C55.6521 28.8705 55.8744 28.9807 56.0301 29.1791Z" fill="#10AE8F"/>
    <path d="M56.5637 31.7135C56.497 31.7135 56.4303 31.7135 56.3413 31.6915L56.3636 31.4931C56.4303 31.5152 56.4747 31.5152 56.5415 31.5152C56.6304 31.5152 56.6971 31.4931 56.7638 31.427C56.8083 31.3609 56.875 31.2948 56.9194 31.1846L57.0751 30.7658L56.2969 28.9146H56.5415L57.1862 30.5455L57.7866 28.9146H58.0311L57.1195 31.2727C57.0528 31.427 56.9861 31.5372 56.9194 31.6033C56.8083 31.6915 56.6971 31.7135 56.5637 31.7135Z" fill="#10AE8F"/>
    <path d="M58.1201 31.3829V30.5895H58.3425C58.4314 30.4793 58.4981 30.3251 58.5648 30.1267C58.6315 29.9284 58.6537 29.686 58.6537 29.4435V28.9366H59.9656V30.5895H60.2768V31.3829H60.0767V30.7879H58.3425V31.3829H58.1201ZM58.587 30.5895H59.7432V29.113H58.8538V29.4876C58.8761 29.9063 58.7649 30.281 58.587 30.5895Z" fill="#10AE8F"/>
    <path d="M61.2774 30.8099C61.1217 30.8099 60.9661 30.7658 60.8327 30.6777C60.6993 30.5895 60.6326 30.4573 60.6326 30.259C60.6326 30.1488 60.6548 30.0606 60.6993 29.9945C60.7437 29.9284 60.8104 29.8623 60.8771 29.8182C60.9438 29.7741 61.0328 29.73 61.144 29.708C61.2551 29.686 61.3663 29.6639 61.4552 29.6639C61.5664 29.6639 61.6776 29.6419 61.811 29.6419H61.9444V29.5537C61.9444 29.2011 61.7665 29.0468 61.4108 29.0468C61.1884 29.0468 61.0105 29.113 60.8549 29.2672L60.7437 29.135C60.9216 28.9587 61.144 28.8705 61.433 28.8705C61.6553 28.8705 61.811 28.9366 61.9444 29.0468C62.0778 29.157 62.1445 29.3333 62.1445 29.5537V30.3691C62.1445 30.5455 62.1667 30.6777 62.1667 30.7879H61.9666C61.9444 30.6556 61.9444 30.5455 61.9444 30.4573C61.811 30.6777 61.5886 30.8099 61.2774 30.8099ZM61.3441 30.6336C61.5442 30.6336 61.6998 30.5675 61.811 30.4353C61.9221 30.303 61.9666 30.1488 61.9666 29.9725V29.8182H61.8332C61.1884 29.8182 60.8771 29.9725 60.8771 30.259C60.8771 30.3912 60.9216 30.4793 61.0105 30.5455C61.0995 30.6116 61.2107 30.6336 61.3441 30.6336Z" fill="#10AE8F"/>
    <path d="M63.1005 30.4132V31.7135H62.8782V28.9146H63.1005V29.2893H63.1227C63.1894 29.157 63.3006 29.0468 63.434 28.9807C63.5674 28.9146 63.7008 28.8705 63.8565 28.8705C64.1455 28.8705 64.3679 28.9587 64.5457 29.135C64.7236 29.3113 64.8125 29.5537 64.8125 29.8182C64.8125 30.1047 64.7236 30.3251 64.5457 30.5234C64.3679 30.6997 64.1455 30.8099 63.8565 30.8099C63.7008 30.8099 63.5674 30.7658 63.4118 30.6997C63.3006 30.6336 63.1895 30.5455 63.1005 30.4132ZM64.3679 30.3912C64.5013 30.2369 64.568 30.0606 64.568 29.8402C64.568 29.6198 64.5013 29.4215 64.3679 29.2672C64.2345 29.113 64.0566 29.0468 63.8342 29.0468C63.6119 29.0468 63.434 29.113 63.3006 29.2672C63.1672 29.4215 63.0783 29.5978 63.0783 29.8402C63.0783 30.0606 63.145 30.259 63.3006 30.3912C63.434 30.5455 63.6119 30.6116 63.8342 30.6116C64.0566 30.6336 64.2345 30.5455 64.3679 30.3912Z" fill="#10AE8F"/>
    <path d="M66.9025 29.157L66.7691 29.2893C66.7024 29.2231 66.6357 29.157 66.5467 29.1129C66.4578 29.0689 66.3466 29.0468 66.2577 29.0468C66.0354 29.0468 65.8575 29.1129 65.7241 29.2672C65.5907 29.4215 65.524 29.5978 65.524 29.8182C65.524 30.0386 65.5907 30.2369 65.7241 30.3691C65.8575 30.5234 66.0354 30.5895 66.2577 30.5895C66.48 30.5895 66.6579 30.5234 66.7913 30.3691L66.9247 30.5014C66.7469 30.6997 66.5245 30.7879 66.2577 30.7879C65.9687 30.7879 65.7463 30.6997 65.5684 30.5234C65.3906 30.3471 65.3016 30.1047 65.3016 29.8182C65.3016 29.5317 65.3906 29.3113 65.5684 29.1129C65.7463 28.9366 65.9687 28.8485 66.2577 28.8485C66.5245 28.8705 66.7468 28.9587 66.9025 29.157Z" fill="#10AE8F"/>
    <path d="M67.8586 30.7659V29.113H67.1693V28.9366H68.7479V29.113H68.0587V30.7659H67.8586Z" fill="#10AE8F"/>
    <path d="M69.2148 30.7438V28.8926H70.0597C70.2154 28.8926 70.371 28.9366 70.4822 29.0028C70.5934 29.0689 70.6601 29.2011 70.6601 29.3554C70.6601 29.4656 70.6378 29.5537 70.5711 29.6198C70.5044 29.6859 70.4155 29.73 70.3266 29.7521C70.46 29.7741 70.5489 29.8182 70.6378 29.9063C70.7268 29.9945 70.7712 30.1047 70.7712 30.2369C70.7712 30.3912 70.7045 30.5234 70.5934 30.6116C70.4822 30.6997 70.3043 30.7438 70.1042 30.7438H69.2148ZM69.4372 29.708H70.0375C70.1487 29.708 70.2376 29.6859 70.3043 29.6198C70.371 29.5758 70.4155 29.4876 70.4155 29.3994C70.4155 29.2893 70.371 29.2231 70.3043 29.1791C70.2154 29.135 70.1264 29.1129 69.993 29.1129H69.4149L69.4372 29.708ZM69.4372 30.5675H70.0375C70.1709 30.5675 70.2821 30.5455 70.371 30.4793C70.46 30.4132 70.5044 30.3471 70.5044 30.2369C70.5044 30.1267 70.46 30.0386 70.371 29.9725C70.2821 29.9063 70.1709 29.8843 70.0597 29.8843H69.4372V30.5675Z" fill="#10AE8F"/>
    <path d="M72.1276 30.8099C71.8608 30.8099 71.6384 30.7218 71.4605 30.5234C71.2827 30.3471 71.1937 30.1047 71.1937 29.8182C71.1937 29.5317 71.2827 29.3113 71.4605 29.135C71.6384 28.9587 71.8608 28.8705 72.1276 28.8705C72.4166 28.8705 72.6167 28.9587 72.7724 29.135C72.928 29.3113 72.9947 29.5317 72.9947 29.7741V29.8843H71.4161C71.4161 30.0827 71.4828 30.259 71.6162 30.4132C71.7496 30.5675 71.9275 30.6336 72.1276 30.6336C72.3721 30.6336 72.5945 30.5234 72.7724 30.3251L72.9058 30.4353C72.7279 30.6777 72.4611 30.8099 72.1276 30.8099ZM71.4161 29.708H72.7724C72.7724 29.5096 72.7056 29.3554 72.5722 29.2231C72.4611 29.0909 72.3054 29.0468 72.1053 29.0468C71.9052 29.0468 71.7496 29.1129 71.6162 29.2452C71.505 29.3774 71.4383 29.5317 71.4161 29.708Z" fill="#10AE8F"/>
    <path d="M73.595 30.7438V28.8926H73.8173V29.6859H74.9512V28.8926H75.1736V30.7438H74.9512V29.8843H73.8173V30.7438H73.595Z" fill="#10AE8F"/>
    <path d="M75.9296 30.7438V28.8926H76.1519V29.6859H77.2858V28.8926H77.5082V30.7438H77.2858V29.8843H76.1519V30.7438H75.9296Z" fill="#10AE8F"/>
    <path d="M79.0868 30.7879C78.7978 30.7879 78.5755 30.6997 78.3754 30.5014C78.1975 30.3251 78.1085 30.0826 78.0863 29.7961C78.0863 29.5096 78.1752 29.2893 78.3531 29.0909C78.531 28.9146 78.7756 28.8264 79.0646 28.8264C79.3537 28.8264 79.5982 28.9146 79.7761 29.0909C79.954 29.2672 80.0429 29.5096 80.0651 29.7961C80.0651 30.0826 79.9762 30.303 79.7983 30.5014C79.6205 30.6997 79.3759 30.7879 79.0868 30.7879ZM79.0868 30.6116C79.3092 30.6116 79.5093 30.5455 79.6427 30.3912C79.7761 30.2369 79.8428 30.0606 79.8428 29.8402C79.8428 29.6198 79.7761 29.4215 79.6427 29.2672C79.5093 29.1129 79.3314 29.0468 79.0868 29.0468C78.8645 29.0468 78.6866 29.1129 78.531 29.2672C78.3976 29.4215 78.3309 29.5978 78.3309 29.8402C78.3309 30.0606 78.3976 30.259 78.531 30.3912C78.6866 30.5234 78.8645 30.6116 79.0868 30.6116Z" fill="#10AE8F"/>
    <path d="M81.4882 30.7879C81.2213 30.7879 80.999 30.6997 80.8211 30.5014C80.6433 30.3251 80.5543 30.0826 80.5543 29.7961C80.5543 29.5096 80.6433 29.2893 80.8211 29.113C80.999 28.9366 81.2213 28.8485 81.4882 28.8264C81.7772 28.8264 81.9773 28.9146 82.1329 29.0909C82.2886 29.2672 82.3553 29.4876 82.3553 29.73V29.8402H80.7767C80.7767 30.0386 80.8434 30.2149 80.9768 30.3691C81.1102 30.5234 81.2881 30.5895 81.4882 30.5895C81.7327 30.5895 81.9551 30.4793 82.1329 30.281L82.2664 30.3912C82.0885 30.6556 81.8217 30.7879 81.4882 30.7879ZM80.7767 29.6859H82.1329C82.1329 29.4876 82.0662 29.3333 81.9328 29.2011C81.8217 29.0689 81.666 29.0248 81.4659 29.0248C81.2658 29.0248 81.1102 29.0909 80.9768 29.2231C80.8434 29.3774 80.7767 29.5317 80.7767 29.6859Z" fill="#10AE8F"/>
    <path d="M50.4715 34.7769C50.4048 34.7769 50.3381 34.7769 50.2492 34.7548L50.2714 34.5565C50.3381 34.5785 50.3826 34.5785 50.4493 34.5785C50.5382 34.5785 50.6049 34.5565 50.6716 34.4904C50.7161 34.4242 50.7828 34.3581 50.8273 34.2479L50.9829 33.8292L50.2047 31.978H50.4493L51.0941 33.6088L51.6944 31.978H51.939L51.0274 34.3361C50.9607 34.4904 50.894 34.6006 50.8273 34.6667C50.7161 34.7328 50.6049 34.7769 50.4715 34.7769Z" fill="#10AE8F"/>
    <path d="M53.4953 33.8072V33.0358C53.3174 33.0799 53.1173 33.1019 52.9172 33.1019C52.4948 33.1019 52.2947 32.9036 52.2947 32.5289V31.9559H52.517V32.5069C52.517 32.6612 52.5615 32.7713 52.6282 32.8375C52.6949 32.9036 52.8061 32.9256 52.9617 32.9256C53.1173 32.9256 53.2952 32.9036 53.4953 32.8595V31.978H53.7177V33.8292L53.4953 33.8072Z" fill="#10AE8F"/>
    <path d="M54.696 33.4545V34.7548H54.4736V31.9559H54.696V32.3306H54.7182C54.7849 32.1984 54.8961 32.0882 55.0295 32.022C55.1629 31.9559 55.2963 31.9118 55.4519 31.9118C55.741 31.9118 55.9633 32 56.1412 32.1763C56.3191 32.3526 56.408 32.595 56.408 32.8595C56.408 33.146 56.3191 33.3664 56.1412 33.5647C55.9633 33.7411 55.741 33.8512 55.4519 33.8512C55.2963 33.8512 55.1629 33.8072 55.0073 33.7411C54.8738 33.697 54.7849 33.5868 54.696 33.4545ZM55.9633 33.4545C56.0967 33.3003 56.1634 33.124 56.1634 32.9036C56.1634 32.6832 56.0967 32.4849 55.9633 32.3306C55.8299 32.1763 55.652 32.1102 55.4297 32.1102C55.2074 32.1102 55.0295 32.1763 54.8961 32.3306C54.7627 32.4849 54.6737 32.6612 54.6737 32.9036C54.6737 33.146 54.7404 33.3223 54.8961 33.4545C55.0295 33.6088 55.2074 33.6749 55.4297 33.6749C55.652 33.6749 55.8299 33.6088 55.9633 33.4545Z" fill="#10AE8F"/>
    <path d="M57.7865 33.8512C57.5197 33.8512 57.2973 33.7631 57.1195 33.5647C56.9416 33.3884 56.8527 33.146 56.8527 32.8595C56.8527 32.573 56.9416 32.3526 57.1195 32.1763C57.2973 32 57.5197 31.9118 57.7865 31.8898C58.0755 31.8898 58.2756 31.978 58.4313 32.1543C58.5869 32.3306 58.6536 32.551 58.6536 32.7934V32.9036H57.075C57.075 33.1019 57.1417 33.2782 57.2751 33.4325C57.4085 33.5868 57.5864 33.6529 57.7865 33.6529C58.0311 33.6529 58.2534 33.5427 58.4313 33.3443L58.5647 33.4545C58.3868 33.741 58.12 33.8512 57.7865 33.8512ZM57.075 32.7713H58.4313C58.4313 32.573 58.3646 32.4187 58.2312 32.2865C58.12 32.1543 57.9644 32.1102 57.7643 32.1102C57.5642 32.1102 57.4085 32.1763 57.2751 32.3085C57.1639 32.4408 57.0972 32.595 57.075 32.7713Z" fill="#10AE8F"/>
    <path d="M58.8538 33.8072L59.8765 32.8375L58.9427 31.9559H59.254L60.1211 32.8154V31.9559H60.3434V32.8154L61.2106 31.9339H61.5219L60.588 32.8154L61.6108 33.7851H61.2995L60.3434 32.8595V33.8072H60.1211V32.8595L59.165 33.8072H58.8538Z" fill="#10AE8F"/>
    <path d="M61.8109 34.4022V33.6088H62.0333C62.1222 33.4986 62.1889 33.3443 62.2556 33.146C62.3223 32.9477 62.3445 32.7052 62.3445 32.4628V31.9559H63.6563V33.6088H63.9676V34.4022H63.7675V33.8072H62.0333V34.4022H61.8109ZM62.2778 33.6088H63.434V32.1322H62.5446V32.5069C62.5669 32.9477 62.4779 33.3223 62.2778 33.6088Z" fill="#10AE8F"/>
    <path d="M65.2794 33.8512C65.0126 33.8512 64.7903 33.7631 64.6124 33.5647C64.4345 33.3884 64.3456 33.146 64.3456 32.8595C64.3456 32.573 64.4345 32.3526 64.6124 32.1763C64.7903 32 65.0126 31.9118 65.2794 31.9118C65.5685 31.9118 65.7686 32 65.9242 32.1763C66.0798 32.3526 66.1465 32.573 66.1465 32.8154V32.9256H64.5679C64.5679 33.124 64.6346 33.3003 64.768 33.4545C64.9014 33.6088 65.0793 33.6749 65.2794 33.6749C65.524 33.6749 65.7463 33.5647 65.9242 33.3664L66.0576 33.4766C65.8797 33.719 65.6129 33.8512 65.2794 33.8512ZM64.5679 32.7493H65.9242C65.9242 32.551 65.8575 32.3967 65.7241 32.2645C65.6129 32.1322 65.4573 32.0882 65.2572 32.0882C65.0571 32.0882 64.9014 32.1543 64.768 32.2865C64.6346 32.4408 64.5679 32.595 64.5679 32.7493Z" fill="#10AE8F"/>
    <path d="M66.7469 33.8072V31.9559H66.9693V32.7493H68.1032V31.9559H68.3256V33.8072H68.1032V32.9477H66.9693V33.8072H66.7469Z" fill="#10AE8F"/>
    <path d="M69.0814 33.7851V31.9339H69.3038V33.4766L70.4599 31.9339H70.7045V33.7851H70.4822V32.2204L69.326 33.7851H69.0814Z" fill="#10AE8F"/>
    <path d="M72.261 33.8512C71.9942 33.8512 71.7718 33.7631 71.594 33.5647C71.4161 33.3884 71.3271 33.146 71.3271 32.8595C71.3271 32.573 71.4161 32.3526 71.594 32.1763C71.7718 32 71.9942 31.9118 72.261 31.8898C72.55 31.8898 72.7501 31.978 72.9058 32.1543C73.0614 32.3306 73.1281 32.551 73.1281 32.7934V32.9036H71.5495C71.5495 33.1019 71.6162 33.2782 71.7496 33.4325C71.883 33.5868 72.0609 33.6529 72.261 33.6529C72.5056 33.6529 72.7279 33.5427 72.9058 33.3443L73.0392 33.4545C72.8391 33.719 72.5723 33.8512 72.261 33.8512ZM71.5272 32.7493H72.8835C72.8835 32.551 72.8168 32.3967 72.6834 32.2645C72.5723 32.1322 72.4166 32.0882 72.2165 32.0882C72.0164 32.0882 71.8608 32.1543 71.7274 32.2865C71.6162 32.4187 71.5495 32.573 71.5272 32.7493Z" fill="#10AE8F"/>
    <path d="M5.26947 26.292L9.1382 22.876C9.64959 24.7714 10.6501 26.5124 12.0953 27.9449C14.2521 30.0826 17.098 31.2507 20.1219 31.2727V29.5537L24.8355 34.7769L20.1219 40V38.1267C15.2526 38.1047 10.6724 36.2314 7.22607 32.8154C4.64691 30.259 2.93488 27.0854 2.22339 23.6253L5.26947 26.292Z" fill="#FAB31F"/>
    <path d="M1.8899 19.9229C1.91213 15.0964 3.80204 10.5565 7.24833 7.1405C9.82749 4.58403 13.0292 2.88706 16.52 2.18182L13.7629 5.20111L17.2092 9.03582C15.2971 9.54271 13.5406 10.5344 12.0954 11.9669C9.93865 14.1047 8.76025 16.9256 8.73801 19.9229H10.4723L5.20279 24.595L0 19.9229H1.8899Z" fill="#0EAE91"/>
    <path d="M38.1315 16.3747C37.42 12.9146 35.708 9.71901 33.1288 7.18457C29.6825 3.76859 25.1023 1.87328 20.233 1.87328V0L15.5194 5.22314L20.233 10.4463V8.72727C23.2569 8.74931 26.1251 9.91735 28.2596 12.0551C29.7048 13.4876 30.7053 15.2286 31.2167 17.124H35.2188H38.2649L38.1315 16.3747Z" fill="#FAB31F"/>
</svg>