<svg width="375" height="183" viewBox="0 0 375 183" fill="none" xmlns="http://www.w3.org/2000/svg">
    <path d="M141.5 121.2C139 121.2 136.7 120.8 134.8 120.1C132.9 119.3 131.3 118.3 130 116.9C128.7 115.5 127.8 113.9 127.1 112C126.4 110.1 126.1 108.1 126.1 105.8V104.6C126.1 102.5 126.5 100.6 127.2 98.8003C128 97.0003 129 95.5003 130.4 94.3003C131.8 93.1003 133.4 92.1003 135.2 91.4003C137.1 90.7003 139.1 90.3003 141.4 90.3003C143.6 90.3003 145.7 90.6003 147.6 91.3003C149.5 92.0003 151.1 93.0003 152.4 94.2003C153.7 95.4003 154.8 96.9003 155.6 98.7003C156.4 100.5 156.7 102.4 156.7 104.5V105.7C156.7 108 156.4 110 155.8 111.9C155.2 113.8 154.2 115.4 152.9 116.8C151.6 118.2 150 119.2 148.1 120C146.2 120.8 144 121.2 141.5 121.2ZM141.4 94.9003C138.1 94.9003 135.6 95.8003 133.9 97.6003C132.2 99.4003 131.4 101.8 131.4 104.8V105.8C131.4 107.4 131.6 108.8 131.9 110.2C132.2 111.5 132.8 112.7 133.6 113.7C134.4 114.7 135.4 115.5 136.7 116C138 116.6 139.5 116.8 141.4 116.8C143.3 116.8 144.9 116.5 146.2 116C147.5 115.5 148.5 114.7 149.3 113.8C150.1 112.8 150.6 111.7 151 110.3C151.3 108.9 151.5 107.5 151.5 105.8V104.8C151.5 101.8 150.7 99.4003 149 97.7003C147.2 95.8003 144.7 94.9003 141.4 94.9003Z" fill="#0EAE91" stroke="#0EAE91" stroke-width="1.551" stroke-miterlimit="10"/>
    <path d="M182.3 120.6V95.3999H167.7V120.6H162.6V90.8999H187.4V120.6H182.3Z" fill="#0EAE91" stroke="#0EAE91" stroke-width="1.551" stroke-miterlimit="10"/>
    <path d="M217.3 120.6H194.3V90.8999H217.5L216 95.3999H199.4V102.6H214.5V107.1H199.4V116.1H217.4L217.3 120.6Z" fill="#0EAE91" stroke="#0EAE91" stroke-width="1.551" stroke-miterlimit="10"/>
    <path d="M223.6 120.6V90.8999H239.2C240.7 90.8999 242 91.0999 243.1 91.5999C244.2 92.0999 245.2 92.6999 246 93.4999C246.8 94.2999 247.3 95.2999 247.7 96.3999C248.1 97.4999 248.3 98.7999 248.3 100.1C248.3 101.5 248.1 102.8 247.7 104C247.3 105.2 246.8 106.2 246 107.1C245.3 108 244.3 108.7 243.2 109.2C242.1 109.7 240.7 110 239.2 110H228.7V120.7L223.6 120.6ZM228.7 95.2999V105.3H237.4C239.4 105.3 240.9 104.9 241.8 104C242.7 103.2 243.2 101.8 243.2 99.9999C243.2 98.2999 242.7 97.0999 241.7 96.2999C240.7 95.5999 239.3 95.1999 237.4 95.1999L228.7 95.2999Z" fill="#0EAE91" stroke="#0EAE91" stroke-width="1.551" stroke-miterlimit="10"/>
    <path d="M259.4 112.1L256.1 120.6H250.7L262.4 90.8003H268.5L280.9 120.5H275.6L272.1 112L259.4 112.1ZM261 107.9H270.5L266.4 97.9003L265.7 94.6003L265 97.9003L261 107.9Z" fill="#0EAE91" stroke="#0EAE91" stroke-width="1.551" stroke-miterlimit="10"/>
    <path d="M298.9 95.3003V120.5H293.8V95.3003H283.8V90.8003H309.4L307.9 95.3003H298.9Z" fill="#0EAE91" stroke="#0EAE91" stroke-width="1.551" stroke-miterlimit="10"/>
    <path d="M328.4 121C325.9 121 323.6 120.6 321.7 119.9C319.8 119.1 318.2 118.1 316.9 116.7C315.6 115.3 314.7 113.7 314 111.8C313.3 109.9 313 107.9 313 105.6V104.4C313 102.3 313.4 100.4 314.1 98.6001C314.9 96.8001 315.9 95.3001 317.3 94.1001C318.7 92.9001 320.3 91.9001 322.1 91.2001C324 90.5001 326 90.1001 328.3 90.1001C330.5 90.1001 332.6 90.4001 334.5 91.1001C336.4 91.8001 338 92.8001 339.3 94.0001C340.6 95.2001 341.7 96.7001 342.5 98.5001C343.3 100.3 343.6 102.2 343.6 104.3V105.5C343.6 107.8 343.3 109.8 342.7 111.7C342.1 113.6 341.1 115.2 339.8 116.6C338.5 118 336.9 119 335 119.8C333.1 120.6 330.9 121 328.4 121ZM328.3 94.7001C325 94.7001 322.5 95.6001 320.8 97.4001C319.1 99.2001 318.3 101.6 318.3 104.5V105.5C318.3 107.1 318.5 108.5 318.8 109.9C319.1 111.2 319.7 112.4 320.5 113.4C321.3 114.4 322.3 115.2 323.6 115.7C324.9 116.3 326.4 116.5 328.3 116.5C330.2 116.5 331.8 116.2 333.1 115.7C334.4 115.2 335.4 114.4 336.2 113.5C337 112.5 337.5 111.4 337.9 110C338.2 108.6 338.4 107.2 338.4 105.5V104.5C338.4 101.5 337.6 99.1001 335.9 97.4001C334.1 95.6001 331.6 94.7001 328.3 94.7001Z" fill="#0EAE91" stroke="#0EAE91" stroke-width="1.551" stroke-miterlimit="10"/>
    <path d="M349.5 120.4V90.7002H365.1C366.6 90.7002 367.9 90.9002 369 91.4002C370.1 91.9002 371.1 92.5002 371.9 93.3002C372.7 94.1002 373.2 95.1002 373.6 96.2002C374 97.3002 374.2 98.6002 374.2 99.9002C374.2 101.3 374 102.6 373.6 103.8C373.2 105 372.7 106 371.9 106.9C371.2 107.8 370.2 108.5 369.1 109C368 109.5 366.6 109.8 365.1 109.8H354.6V120.5L349.5 120.4ZM354.6 95.1002V105.1H363.3C365.3 105.1 366.8 104.7 367.7 103.8C368.6 103 369.1 101.6 369.1 99.8002C369.1 98.1002 368.6 96.9002 367.6 96.1002C366.6 95.4002 365.2 95.0002 363.3 95.0002L354.6 95.1002Z" fill="#0EAE91" stroke="#0EAE91" stroke-width="1.551" stroke-miterlimit="10"/>
    <path d="M146.9 142.2C148.5 143 149.8 143.9 150.6 145.1C151.5 146.3 151.9 147.7 151.9 149.5C151.9 151 151.6 152.3 151.1 153.3C150.6 154.4 149.8 155.2 148.9 155.9C148 156.6 146.8 157.1 145.6 157.4C144.3 157.7 143 157.9 141.5 157.9H127.1V128.2H140.8C142.1 128.2 143.4 128.3 144.5 128.6C145.6 128.9 146.6 129.4 147.4 130C148.2 130.6 148.9 131.4 149.3 132.4C149.8 133.4 150 134.5 150 135.9C150 138.4 149 140.4 146.9 141.9V142.2ZM140.3 140.3C141.6 140.3 142.7 140 143.5 139.3C144.3 138.7 144.7 137.5 144.7 135.9C144.7 134.6 144.3 133.8 143.6 133.3C142.8 132.9 141.8 132.7 140.5 132.7H132.3V140.2L140.3 140.3ZM132.3 144.8V153.5H141.5C143.4 153.5 144.8 153.1 145.7 152.3C146.6 151.5 147 150.4 147 149C147 147.5 146.6 146.4 145.7 145.8C144.8 145.1 143.5 144.8 141.7 144.8H132.3Z" fill="#0EAE91" stroke="#0EAE91" stroke-width="1.551" stroke-miterlimit="10"/>
    <path d="M157.8 157.9V128.2H164.7L173.6 149L182.4 128.2H189.2V157.9H184.1V135.5L176.1 154.4H171.2L163.1 135V157.9H157.8Z" fill="#0EAE91" stroke="#0EAE91" stroke-width="1.551" stroke-miterlimit="10"/>
    <path d="M195.9 157.9V128.2H211.5C213 128.2 214.3 128.4 215.4 128.9C216.5 129.4 217.5 130 218.3 130.8C219.1 131.6 219.6 132.6 220 133.7C220.4 134.8 220.6 136.1 220.6 137.4C220.6 138.8 220.4 140.1 220 141.3C219.6 142.5 219.1 143.5 218.3 144.4C217.6 145.3 216.6 146 215.5 146.5C214.4 147 213 147.3 211.5 147.3H201V158L195.9 157.9ZM201 132.6V142.6H209.7C211.7 142.6 213.2 142.2 214.1 141.3C215 140.5 215.5 139.1 215.5 137.3C215.5 135.6 215 134.4 214 133.6C213 132.9 211.6 132.5 209.7 132.5L201 132.6Z" fill="#0EAE91" stroke="#0EAE91" stroke-width="1.551" stroke-miterlimit="10"/>
    <path d="M228 140.3V131.9H233.4V132.7H229V140.2L228 140.3Z" fill="#10AE8F"/>
    <path d="M239.1 140.5C237.8 140.5 236.8 140.1 235.9 139.2C235.1 138.4 234.7 137.3 234.6 136C234.6 134.7 235 133.7 235.8 132.8C236.6 131.9 237.7 131.6 239 131.6C240.3 131.6 241.4 132 242.2 132.8C243 133.6 243.4 134.7 243.5 136C243.5 137.3 243.1 138.3 242.3 139.2C241.5 140.1 240.4 140.5 239.1 140.5ZM239.1 139.6C240.1 139.6 241 139.3 241.6 138.6C242.2 137.9 242.5 137.1 242.5 136.1C242.5 135.1 242.2 134.2 241.6 133.5C241 132.8 240.2 132.5 239.1 132.5C238.1 132.5 237.3 132.8 236.6 133.5C236 134.2 235.7 135 235.7 136.1C235.7 137.1 236 138 236.6 138.6C237.3 139.3 238.1 139.6 239.1 139.6Z" fill="#10AE8F"/>
    <path d="M252.9 133L252.3 133.6C252 133.3 251.7 133 251.3 132.8C250.9 132.6 250.4 132.5 250 132.5C249 132.5 248.2 132.8 247.6 133.5C247 134.2 246.7 135 246.7 136C246.7 137 247 137.9 247.6 138.5C248.2 139.2 249 139.5 250 139.5C251 139.5 251.8 139.2 252.4 138.5L253 139.1C252.2 140 251.2 140.4 250 140.4C248.7 140.4 247.7 140 246.9 139.2C246.1 138.4 245.7 137.3 245.7 136C245.7 134.7 246.1 133.7 246.9 132.8C247.7 132 248.7 131.6 250 131.6C251.2 131.6 252.2 132.1 252.9 133Z" fill="#10AE8F"/>
    <path d="M255.3 144.5C255 144.5 254.7 144.5 254.3 144.4L254.4 143.5C254.7 143.6 254.9 143.6 255.2 143.6C255.6 143.6 255.9 143.5 256.2 143.2C256.4 142.9 256.7 142.6 256.9 142.1L257.6 140.2L254.1 131.8H255.2L258.1 139.2L260.8 131.8H261.9L257.8 142.5C257.5 143.2 257.2 143.7 256.9 144C256.4 144.4 255.9 144.5 255.3 144.5Z" fill="#10AE8F"/>
    <path d="M262.3 143V139.4H263.3C263.7 138.9 264 138.2 264.3 137.3C264.6 136.4 264.7 135.3 264.7 134.2V131.9H270.6V139.4H272V143H271.1V140.3H263.3V143H262.3ZM264.4 139.4H269.6V132.7H265.6V134.4C265.7 136.3 265.2 138 264.4 139.4Z" fill="#10AE8F"/>
    <path d="M276.5 140.4C275.8 140.4 275.1 140.2 274.5 139.8C273.9 139.4 273.6 138.8 273.6 137.9C273.6 137.4 273.7 137 273.9 136.7C274.1 136.4 274.4 136.1 274.7 135.9C275 135.7 275.4 135.5 275.9 135.4C276.4 135.3 276.9 135.2 277.3 135.2C277.8 135.2 278.3 135.1 278.9 135.1H279.5V134.7C279.5 133.1 278.7 132.4 277.1 132.4C276.1 132.4 275.3 132.7 274.6 133.4L274.1 132.8C274.9 132 275.9 131.6 277.2 131.6C278.2 131.6 278.9 131.9 279.5 132.4C280.1 132.9 280.4 133.7 280.4 134.7V138.4C280.4 139.2 280.5 139.8 280.5 140.3H279.6C279.5 139.7 279.5 139.2 279.5 138.8C278.9 139.8 277.9 140.4 276.5 140.4ZM276.8 139.6C277.7 139.6 278.4 139.3 278.9 138.7C279.4 138.1 279.6 137.4 279.6 136.6V135.9H279C276.1 135.9 274.7 136.6 274.7 137.9C274.7 138.5 274.9 138.9 275.3 139.2C275.7 139.5 276.2 139.6 276.8 139.6Z" fill="#10AE8F"/>
    <path d="M284.7 138.6V144.5H283.7V131.8H284.7V133.5H284.8C285.1 132.9 285.6 132.4 286.2 132.1C286.8 131.8 287.4 131.6 288.1 131.6C289.4 131.6 290.4 132 291.2 132.8C292 133.6 292.4 134.7 292.4 135.9C292.4 137.2 292 138.2 291.2 139.1C290.4 139.9 289.4 140.4 288.1 140.4C287.4 140.4 286.8 140.2 286.1 139.9C285.6 139.6 285.1 139.2 284.7 138.6ZM290.4 138.5C291 137.8 291.3 137 291.3 136C291.3 135 291 134.1 290.4 133.4C289.8 132.7 289 132.4 288 132.4C287 132.4 286.2 132.7 285.6 133.4C285 134.1 284.6 134.9 284.6 136C284.6 137 284.9 137.9 285.6 138.5C286.2 139.2 287 139.5 288 139.5C289 139.6 289.8 139.2 290.4 138.5Z" fill="#10AE8F"/>
    <path d="M301.8 132.9L301.2 133.5C300.9 133.2 300.6 132.9 300.2 132.7C299.8 132.5 299.3 132.4 298.9 132.4C297.9 132.4 297.1 132.7 296.5 133.4C295.9 134.1 295.6 134.9 295.6 135.9C295.6 136.9 295.9 137.8 296.5 138.4C297.1 139.1 297.9 139.4 298.9 139.4C299.9 139.4 300.7 139.1 301.3 138.4L301.9 139C301.1 139.9 300.1 140.3 298.9 140.3C297.6 140.3 296.6 139.9 295.8 139.1C295 138.3 294.6 137.2 294.6 135.9C294.6 134.6 295 133.6 295.8 132.7C296.6 131.9 297.6 131.5 298.9 131.5C300.1 131.6 301.1 132 301.8 132.9Z" fill="#10AE8F"/>
    <path d="M306.1 140.2V132.7H303V131.9H310.1V132.7H307V140.2H306.1Z" fill="#10AE8F"/>
    <path d="M312.2 140.1V131.7H316C316.7 131.7 317.4 131.9 317.9 132.2C318.4 132.5 318.7 133.1 318.7 133.8C318.7 134.3 318.6 134.7 318.3 135C318 135.3 317.6 135.5 317.2 135.6C317.8 135.7 318.2 135.9 318.6 136.3C319 136.7 319.2 137.2 319.2 137.8C319.2 138.5 318.9 139.1 318.4 139.5C317.9 139.9 317.1 140.1 316.2 140.1H312.2ZM313.2 135.4H315.9C316.4 135.4 316.8 135.3 317.1 135C317.4 134.8 317.6 134.4 317.6 134C317.6 133.5 317.4 133.2 317.1 133C316.7 132.8 316.3 132.7 315.7 132.7H313.1L313.2 135.4ZM313.2 139.3H315.9C316.5 139.3 317 139.2 317.4 138.9C317.8 138.6 318 138.3 318 137.8C318 137.3 317.8 136.9 317.4 136.6C317 136.3 316.5 136.2 316 136.2H313.2V139.3Z" fill="#10AE8F"/>
    <path d="M325.3 140.4C324.1 140.4 323.1 140 322.3 139.1C321.5 138.3 321.1 137.2 321.1 135.9C321.1 134.6 321.5 133.6 322.3 132.8C323.1 132 324.1 131.6 325.3 131.6C326.6 131.6 327.5 132 328.2 132.8C328.9 133.6 329.2 134.6 329.2 135.7V136.2H322.1C322.1 137.1 322.4 137.9 323 138.6C323.6 139.3 324.4 139.6 325.3 139.6C326.4 139.6 327.4 139.1 328.2 138.2L328.8 138.7C328 139.8 326.8 140.4 325.3 140.4ZM322.1 135.4H328.2C328.2 134.5 327.9 133.8 327.3 133.2C326.8 132.6 326.1 132.4 325.2 132.4C324.3 132.4 323.6 132.7 323 133.3C322.5 133.9 322.2 134.6 322.1 135.4Z" fill="#10AE8F"/>
    <path d="M331.9 140.1V131.7H332.9V135.3H338V131.7H339V140.1H338V136.2H332.9V140.1H331.9Z" fill="#10AE8F"/>
    <path d="M342.4 140.1V131.7H343.4V135.3H348.5V131.7H349.5V140.1H348.5V136.2H343.4V140.1H342.4Z" fill="#10AE8F"/>
    <path d="M356.6 140.3C355.3 140.3 354.3 139.9 353.4 139C352.6 138.2 352.2 137.1 352.1 135.8C352.1 134.5 352.5 133.5 353.3 132.6C354.1 131.8 355.2 131.4 356.5 131.4C357.8 131.4 358.9 131.8 359.7 132.6C360.5 133.4 360.9 134.5 361 135.8C361 137.1 360.6 138.1 359.8 139C359 139.9 357.9 140.3 356.6 140.3ZM356.6 139.5C357.6 139.5 358.5 139.2 359.1 138.5C359.7 137.8 360 137 360 136C360 135 359.7 134.1 359.1 133.4C358.5 132.7 357.7 132.4 356.6 132.4C355.6 132.4 354.8 132.7 354.1 133.4C353.5 134.1 353.2 134.9 353.2 136C353.2 137 353.5 137.9 354.1 138.5C354.8 139.1 355.6 139.5 356.6 139.5Z" fill="#10AE8F"/>
    <path d="M367.4 140.3C366.2 140.3 365.2 139.9 364.4 139C363.6 138.2 363.2 137.1 363.2 135.8C363.2 134.5 363.6 133.5 364.4 132.7C365.2 131.9 366.2 131.5 367.4 131.4C368.7 131.4 369.6 131.8 370.3 132.6C371 133.4 371.3 134.4 371.3 135.5V136H364.2C364.2 136.9 364.5 137.7 365.1 138.4C365.7 139.1 366.5 139.4 367.4 139.4C368.5 139.4 369.5 138.9 370.3 138L370.9 138.5C370.1 139.7 368.9 140.3 367.4 140.3ZM364.2 135.3H370.3C370.3 134.4 370 133.7 369.4 133.1C368.9 132.5 368.2 132.3 367.3 132.3C366.4 132.3 365.7 132.6 365.1 133.2C364.5 133.9 364.2 134.6 364.2 135.3Z" fill="#10AE8F"/>
    <path d="M227.9 158.4C227.6 158.4 227.3 158.4 226.9 158.3L227 157.4C227.3 157.5 227.5 157.5 227.8 157.5C228.2 157.5 228.5 157.4 228.8 157.1C229 156.8 229.3 156.5 229.5 156L230.2 154.1L226.7 145.7H227.8L230.7 153.1L233.4 145.7H234.5L230.4 156.4C230.1 157.1 229.8 157.6 229.5 157.9C229 158.2 228.5 158.4 227.9 158.4Z" fill="#10AE8F"/>
    <path d="M241.5 154V150.5C240.7 150.7 239.8 150.8 238.9 150.8C237 150.8 236.1 149.9 236.1 148.2V145.6H237.1V148.1C237.1 148.8 237.3 149.3 237.6 149.6C237.9 149.9 238.4 150 239.1 150C239.8 150 240.6 149.9 241.5 149.7V145.7H242.5V154.1L241.5 154Z" fill="#10AE8F"/>
    <path d="M246.9 152.4V158.3H245.9V145.6H246.9V147.3H247C247.3 146.7 247.8 146.2 248.4 145.9C249 145.6 249.6 145.4 250.3 145.4C251.6 145.4 252.6 145.8 253.4 146.6C254.2 147.4 254.6 148.5 254.6 149.7C254.6 151 254.2 152 253.4 152.9C252.6 153.7 251.6 154.2 250.3 154.2C249.6 154.2 249 154 248.3 153.7C247.7 153.5 247.3 153 246.9 152.4ZM252.6 152.4C253.2 151.7 253.5 150.9 253.5 149.9C253.5 148.9 253.2 148 252.6 147.3C252 146.6 251.2 146.3 250.2 146.3C249.2 146.3 248.4 146.6 247.8 147.3C247.2 148 246.8 148.8 246.8 149.9C246.8 151 247.1 151.8 247.8 152.4C248.4 153.1 249.2 153.4 250.2 153.4C251.2 153.4 252 153.1 252.6 152.4Z" fill="#10AE8F"/>
    <path d="M260.8 154.2C259.6 154.2 258.6 153.8 257.8 152.9C257 152.1 256.6 151 256.6 149.7C256.6 148.4 257 147.4 257.8 146.6C258.6 145.8 259.6 145.4 260.8 145.3C262.1 145.3 263 145.7 263.7 146.5C264.4 147.3 264.7 148.3 264.7 149.4V149.9H257.6C257.6 150.8 257.9 151.6 258.5 152.3C259.1 153 259.9 153.3 260.8 153.3C261.9 153.3 262.9 152.8 263.7 151.9L264.3 152.4C263.5 153.7 262.3 154.2 260.8 154.2ZM257.6 149.3H263.7C263.7 148.4 263.4 147.7 262.8 147.1C262.3 146.5 261.6 146.3 260.7 146.3C259.8 146.3 259.1 146.6 258.5 147.2C258 147.8 257.7 148.5 257.6 149.3Z" fill="#10AE8F"/>
    <path d="M265.6 154L270.2 149.6L266 145.6H267.4L271.3 149.5V145.6H272.3V149.5L276.2 145.5H277.6L273.4 149.5L278 153.9H276.6L272.3 149.7V154H271.3V149.7L267 154H265.6Z" fill="#10AE8F"/>
    <path d="M278.9 156.7V153.1H279.9C280.3 152.6 280.6 151.9 280.9 151C281.2 150.1 281.3 149 281.3 147.9V145.6H287.2V153.1H288.6V156.7H287.7V154H279.9V156.7H278.9ZM281 153.1H286.2V146.4H282.2V148.1C282.3 150.1 281.9 151.8 281 153.1Z" fill="#10AE8F"/>
    <path d="M294.5 154.2C293.3 154.2 292.3 153.8 291.5 152.9C290.7 152.1 290.3 151 290.3 149.7C290.3 148.4 290.7 147.4 291.5 146.6C292.3 145.8 293.3 145.4 294.5 145.4C295.8 145.4 296.7 145.8 297.4 146.6C298.1 147.4 298.4 148.4 298.4 149.5V150H291.3C291.3 150.9 291.6 151.7 292.2 152.4C292.8 153.1 293.6 153.4 294.5 153.4C295.6 153.4 296.6 152.9 297.4 152L298 152.5C297.2 153.6 296 154.2 294.5 154.2ZM291.3 149.2H297.4C297.4 148.3 297.1 147.6 296.5 147C296 146.4 295.3 146.2 294.4 146.2C293.5 146.2 292.8 146.5 292.2 147.1C291.6 147.8 291.3 148.5 291.3 149.2Z" fill="#10AE8F"/>
    <path d="M301.1 154V145.6H302.1V149.2H307.2V145.6H308.2V154H307.2V150.1H302.1V154H301.1Z" fill="#10AE8F"/>
    <path d="M311.6 153.9V145.5H312.6V152.5L317.8 145.5H318.9V153.9H317.9V146.8L312.7 153.9H311.6Z" fill="#10AE8F"/>
    <path d="M325.9 154.2C324.7 154.2 323.7 153.8 322.9 152.9C322.1 152.1 321.7 151 321.7 149.7C321.7 148.4 322.1 147.4 322.9 146.6C323.7 145.8 324.7 145.4 325.9 145.3C327.2 145.3 328.1 145.7 328.8 146.5C329.5 147.3 329.8 148.3 329.8 149.4V149.9H322.7C322.7 150.8 323 151.6 323.6 152.3C324.2 153 325 153.3 325.9 153.3C327 153.3 328 152.8 328.8 151.9L329.4 152.4C328.5 153.6 327.3 154.2 325.9 154.2ZM322.6 149.2H328.7C328.7 148.3 328.4 147.6 327.8 147C327.3 146.4 326.6 146.2 325.7 146.2C324.8 146.2 324.1 146.5 323.5 147.1C323 147.7 322.7 148.4 322.6 149.2Z" fill="#10AE8F"/>
    <path d="M24.6 119.9L42 104.4C44.3 113 48.8 120.9 55.3 127.4C65 137.1 77.8 142.4 91.4 142.5V134.7L112.6 158.4L91.4 182.1V173.6C69.5 173.5 48.9 165 33.4 149.5C21.8 137.9 14.1 123.5 10.9 107.8L24.6 119.9Z" fill="#FAB31F"/>
    <path d="M9.39999 91C9.49999 69.1 18 48.5 33.5 33C45.1 21.4 59.5 13.7 75.2 10.5L62.8 24.2L78.3 41.6C69.7 43.9 61.8 48.4 55.3 54.9C45.6 64.6 40.3 77.4 40.2 91H48L24.3 112.2L0.899994 91H9.39999Z" fill="#0EAE91"/>
    <path d="M172.4 74.9001C169.2 59.2001 161.5 44.7001 149.9 33.2001C134.4 17.7001 113.8 9.1001 91.9 9.1001V0.600098L70.7 24.3001L91.9 48.0001V40.2001C105.5 40.3001 118.4 45.6001 128 55.3001C134.5 61.8001 139 69.7001 141.3 78.3001H159.3H173L172.4 74.9001Z" fill="#FAB31F"/>
</svg>
