<svg width="261" height="84" viewBox="0 0 261 84" fill="none" xmlns="http://www.w3.org/2000/svg">
    <path d="M57.6402 47.9699C58.072 48.3913 58.6476 48.7425 59.2233 49.0234C59.871 49.2341 60.5906 49.3746 61.4541 49.3746C62.3176 49.3746 63.0372 49.2341 63.6849 49.0234C64.3325 48.7425 64.8362 48.3913 65.268 47.9699C65.6997 47.5485 66.0595 46.9866 66.2754 46.3545C66.4913 45.7224 66.5633 45.0903 66.5633 44.3177V43.9666C66.5633 43.2642 66.4194 42.6321 66.2035 42.0702C65.9876 41.5084 65.5558 41.0167 65.1241 40.5953C64.6923 40.1739 64.1166 39.893 63.469 39.612C62.2457 39.1906 60.5906 39.1906 59.3673 39.612C58.7196 39.8227 58.2159 40.1739 57.7122 40.5953C57.2804 41.0167 56.9206 41.5084 56.6328 42.0702C56.3449 42.6321 56.2729 43.2642 56.2729 43.9666V44.3177C56.2729 45.0201 56.4169 45.7224 56.5608 46.3545C56.9206 46.9866 57.2084 47.5485 57.6402 47.9699ZM58.5757 44.388V44.107C58.5757 43.2642 58.7916 42.5619 59.2953 42.0702C59.799 41.5786 60.5186 41.2977 61.4541 41.2977C62.3896 41.2977 63.1811 41.5786 63.6129 42.0702C64.1166 42.5619 64.3325 43.2642 64.3325 44.107V44.388C64.3325 44.8796 64.2605 45.301 64.1886 45.7224C64.1166 46.0736 63.9008 46.4248 63.6849 46.7057C63.469 46.9866 63.1811 47.1973 62.8213 47.3378C62.4615 47.4783 61.9578 47.5485 61.3821 47.5485C60.8065 47.5485 60.3747 47.4783 60.0149 47.3378C59.6551 47.1973 59.3672 46.9866 59.1514 46.7057C58.9355 46.4248 58.7916 46.0736 58.6477 45.7224C58.6477 45.2308 58.5757 44.8094 58.5757 44.388Z" fill="#00AF91"/>
    <path d="M70.0893 41.4381H74.1911V49.2341H76.3499V39.5418H67.9305V49.2341H70.0893V41.4381Z" fill="#00AF91"/>
    <path d="M85.8486 47.3378H80.1638V45.0903H84.9132V43.1237H80.1638V41.4381H85.3449L85.9926 39.5418H78.005V49.2341H85.8486V47.3378Z" fill="#00AF91"/>
    <path d="M89.4467 45.9331H92.5409C93.0447 45.9331 93.5484 45.8629 93.9082 45.6522C94.34 45.5117 94.6278 45.2308 94.9156 44.9498C95.2035 44.6689 95.3474 44.3177 95.4913 43.8963C95.6352 43.4749 95.7072 43.0535 95.7072 42.6321C95.7072 42.2107 95.6352 41.7893 95.4913 41.3679C95.3474 41.0167 95.1315 40.6656 94.9156 40.3846C94.6278 40.1037 94.34 39.893 93.9082 39.7525C93.5484 39.612 93.0447 39.5418 92.5409 39.5418H87.2878V49.3043H89.4467V45.9331ZM93.5484 42.6321C93.5484 43.1237 93.4045 43.4749 93.1886 43.6856C92.9727 43.8963 92.5409 44.0368 91.9653 44.0368H89.4467V41.4381H91.9653C92.469 41.4381 92.9008 41.5084 93.1886 41.7191C93.4045 41.8595 93.5484 42.2107 93.5484 42.6321Z" fill="#00AF91"/>
    <path d="M99.1613 46.6355H102.831L103.911 49.2341H106.141L101.968 39.4716H99.665L95.7072 49.2341H98.0099L99.1613 46.6355ZM99.8809 44.8094L100.96 42.1405L102.112 44.8094H99.8809Z" fill="#00AF91"/>
    <path d="M109.596 49.2341H111.754V41.4381H114.561L115.208 39.5418H106.429V41.4381H109.596V49.2341Z" fill="#00AF91"/>
    <path d="M117.007 47.9699C117.439 48.3913 118.015 48.7425 118.591 49.0234C119.238 49.2341 119.958 49.3746 120.821 49.3746C121.685 49.3746 122.404 49.2341 123.052 49.0234C123.7 48.7425 124.203 48.3913 124.635 47.9699C125.067 47.5485 125.427 46.9866 125.643 46.3545C125.859 45.7224 125.931 45.0903 125.931 44.3177V43.9666C125.931 43.2642 125.787 42.6321 125.571 42.0702C125.283 41.5084 124.923 41.0167 124.491 40.5953C124.06 40.1739 123.484 39.893 122.836 39.612C121.613 39.1906 119.958 39.1906 118.735 39.612C118.087 39.8227 117.583 40.1739 117.079 40.5953C116.648 41.0167 116.288 41.5084 116 42.0702C115.712 42.6321 115.64 43.2642 115.64 43.9666V44.3177C115.64 45.0201 115.784 45.7224 115.928 46.3545C116.288 46.9866 116.648 47.5485 117.007 47.9699ZM117.943 44.388V44.107C117.943 43.2642 118.159 42.5619 118.663 42.0702C119.166 41.5786 119.886 41.2977 120.821 41.2977C121.757 41.2977 122.548 41.5786 122.98 42.0702C123.484 42.5619 123.7 43.2642 123.7 44.107V44.388C123.7 44.8796 123.628 45.301 123.556 45.7224C123.484 46.0736 123.268 46.4248 123.052 46.7057C122.836 46.9866 122.548 47.1973 122.189 47.3378C121.829 47.4783 121.325 47.5485 120.749 47.5485C120.174 47.5485 119.742 47.4783 119.382 47.3378C119.022 47.1973 118.734 46.9866 118.519 46.7057C118.303 46.4248 118.159 46.0736 118.015 45.7224C118.015 45.2308 117.943 44.8094 117.943 44.388Z" fill="#00AF91"/>
    <path d="M129.529 45.9331H132.623C133.127 45.9331 133.63 45.8629 133.99 45.6522C134.422 45.5117 134.71 45.2308 134.998 44.9498C135.285 44.6689 135.429 44.3177 135.573 43.8963C135.717 43.4749 135.789 43.0535 135.789 42.6321C135.789 42.2107 135.717 41.7893 135.573 41.3679C135.429 41.0167 135.213 40.6656 134.998 40.3846C134.71 40.1037 134.422 39.893 133.99 39.7525C133.63 39.612 133.127 39.5418 132.623 39.5418H127.37V49.3043H129.529V45.9331ZM133.558 42.6321C133.558 43.1237 133.414 43.4749 133.199 43.6856C132.983 43.8963 132.551 44.0368 131.975 44.0368H129.457V41.4381H131.975C132.479 41.4381 132.911 41.5084 133.199 41.7191C133.414 41.8595 133.558 42.2107 133.558 42.6321Z" fill="#00AF91"/>
    <path d="M147.519 49.0936C147.95 48.9532 148.31 48.8127 148.67 48.602C149.03 48.3913 149.246 48.0401 149.462 47.689C149.677 47.3378 149.749 46.9164 149.749 46.3545C149.749 45.7224 149.605 45.2308 149.318 44.8094C149.102 44.4582 148.742 44.1773 148.31 43.9666C148.886 43.4749 149.102 42.8428 149.102 42.1405C149.102 41.7191 149.03 41.2977 148.886 40.9465C148.742 40.5953 148.526 40.3144 148.166 40.1037C147.878 39.893 147.519 39.7525 147.159 39.612C146.799 39.5418 146.367 39.4716 145.935 39.4716H141.33V49.2341H146.151C146.655 49.2341 147.087 49.2341 147.519 49.0936ZM143.489 47.3378V45.1605H146.223C146.727 45.1605 147.087 45.2308 147.303 45.4415C147.519 45.5819 147.591 45.8629 147.591 46.2141C147.591 46.5652 147.447 46.8462 147.231 47.0569C147.015 47.2676 146.583 47.3378 146.079 47.3378H143.489ZM143.489 43.2642V41.4381H145.864C146.223 41.4381 146.511 41.5084 146.727 41.5786C146.799 41.5786 146.943 41.7191 146.943 42.1405C146.943 42.5619 146.871 42.8428 146.655 42.9833C146.439 43.1237 146.151 43.194 145.792 43.194H143.489V43.2642Z" fill="#00AF91"/>
    <path d="M153.563 49.2341H155.722V41.4381H158.529L159.176 39.5418H150.397V41.4381H153.563V49.2341Z" fill="#00AF91"/>
    <path d="M161.047 47.9699C161.479 48.3913 162.055 48.7425 162.63 49.0234C163.278 49.2341 163.998 49.3746 164.861 49.3746C165.725 49.3746 166.444 49.2341 167.092 49.0234C167.739 48.7425 168.243 48.3913 168.675 47.9699C169.107 47.5485 169.466 46.9866 169.682 46.3545C169.898 45.7224 169.97 45.0903 169.97 44.3177V43.9666C169.97 43.2642 169.826 42.6321 169.61 42.0702C169.323 41.5084 168.963 41.0167 168.531 40.5953C168.099 40.1739 167.524 39.893 166.876 39.612C165.653 39.1906 163.998 39.1906 162.774 39.612C162.127 39.8227 161.623 40.1739 161.119 40.5953C160.687 41.0167 160.328 41.5084 160.04 42.0702C159.752 42.6321 159.68 43.2642 159.68 43.9666V44.3177C159.68 45.0201 159.824 45.7224 160.04 46.3545C160.256 46.9866 160.615 47.5485 161.047 47.9699ZM161.911 44.388V44.107C161.911 43.2642 162.127 42.5619 162.63 42.0702C163.134 41.5786 163.854 41.2977 164.789 41.2977C165.725 41.2977 166.516 41.5786 166.948 42.0702C167.452 42.5619 167.667 43.2642 167.667 44.107V44.388C167.667 44.8796 167.596 45.301 167.524 45.7224C167.452 46.0736 167.236 46.4248 167.02 46.7057C166.804 46.9866 166.516 47.1973 166.156 47.3378C165.797 47.4783 165.293 47.5485 164.717 47.5485C164.141 47.5485 163.71 47.4783 163.35 47.3378C162.99 47.1973 162.702 46.9866 162.486 46.7057C162.27 46.4248 162.127 46.0736 161.983 45.7224C161.983 45.2308 161.911 44.8094 161.911 44.388Z" fill="#00AF91"/>
    <path d="M173.496 45.9331H176.591C177.094 45.9331 177.598 45.8629 177.958 45.6522C178.39 45.5117 178.677 45.2308 178.965 44.9498C179.253 44.6689 179.397 44.3177 179.541 43.8963C179.685 43.4749 179.757 43.0535 179.757 42.6321C179.757 42.2107 179.685 41.7893 179.541 41.3679C179.397 41.0167 179.181 40.6656 178.965 40.3846C178.677 40.1037 178.39 39.893 177.958 39.7525C177.598 39.612 177.094 39.5418 176.591 39.5418H171.337V49.3043H173.496V45.9331ZM177.526 42.6321C177.526 43.1237 177.382 43.4749 177.166 43.6856C176.95 43.8963 176.519 44.0368 175.943 44.0368H173.424V41.4381H175.943C176.447 41.4381 176.878 41.5084 177.166 41.7191C177.382 41.8595 177.526 42.2107 177.526 42.6321Z" fill="#00AF91"/>
    <path d="M187.097 42.913V49.2341H189.256V39.5418H187.241L182.707 45.7926V39.5418H180.548V49.2341H182.563L187.097 42.913Z" fill="#00AF91"/>
    <path d="M191.27 45.301C191.63 45.5819 191.99 45.7926 192.422 45.9331C193.285 46.2141 194.437 46.2141 195.3 45.9331C195.588 45.7926 195.948 45.6522 196.308 45.4415V49.2341H198.466V39.4716H196.308V43.3344C195.948 43.6154 195.588 43.8261 195.156 44.0368C194.725 44.2475 194.293 44.3177 193.861 44.3177C193.573 44.3177 193.357 44.2475 193.141 44.1773C192.926 44.107 192.782 43.9666 192.71 43.8261C192.566 43.6856 192.494 43.4749 192.422 43.2642C192.35 43.0535 192.35 42.7726 192.35 42.5619V39.4716H190.191V42.913C190.191 43.4047 190.263 43.8963 190.479 44.2475C190.695 44.7391 190.911 45.0201 191.27 45.301Z" fill="#00AF91"/>
    <path d="M202.28 45.0201H206.526V49.2341H208.685V39.4716H206.526V43.1237H202.28V39.4716H200.122V49.2341H202.28V45.0201Z" fill="#00AF91"/>
    <path d="M221.206 39.5418H219.047V49.3043H221.206V39.5418Z" fill="#00AF91"/>
    <path d="M216.529 49.0936C216.96 48.9532 217.32 48.8127 217.68 48.5318C217.968 48.2508 218.256 47.9699 218.4 47.6187C218.543 47.2676 218.687 46.8462 218.687 46.2843C218.687 45.301 218.4 44.5987 217.896 44.0368C217.32 43.4749 216.529 43.194 215.449 43.194H212.571V39.4716H210.412V49.2341H215.233C215.593 49.2341 216.097 49.2341 216.529 49.0936ZM212.499 45.1605H215.161C215.809 45.1605 216.097 45.301 216.241 45.4415C216.385 45.5819 216.529 45.8629 216.529 46.2141C216.529 46.5652 216.457 46.8462 216.241 47.0569C216.025 47.2676 215.665 47.3378 215.089 47.3378H212.499V45.1605Z" fill="#00AF91"/>
    <path d="M224.876 49.2341L227.538 45.8629L227.61 45.6522L227.682 45.8629L230.417 49.2341H233.007L228.906 44.1773L232.288 39.8227L230.129 39.3311L228.042 42L227.61 42.7726L227.251 42L225.164 39.3311L223.005 39.8227L226.387 44.1773L222.285 49.2341H224.876Z" fill="#00AF91"/>
    <path d="M64.9801 56.6087V62.5083H67.139V52.816H64.5484L61.8859 58.8562L59.2953 52.816H56.6328V62.5083H58.7916V56.4682L60.9504 61.4548H62.8933L64.9801 56.6087Z" fill="#00AF91"/>
    <path d="M71.3846 59.9097H75.0546L76.134 62.5084H78.3648L74.1911 52.7458H71.8883L67.9305 62.5084H70.2332L71.3846 59.9097ZM72.1042 58.0836L73.1836 55.4147L74.335 58.0836H72.1042Z" fill="#00AF91"/>
    <path d="M84.0496 62.5083V54.7124H86.7841L87.4318 52.816H78.7246V54.7124H81.8908V62.5083H84.0496Z" fill="#00AF91"/>
    <path d="M95.6352 54.7124L96.2829 52.816H88.2953V62.5083H96.139V60.612H90.4541V58.3645H95.2035V56.398H90.4541V54.7124H95.6352Z" fill="#00AF91"/>
    <path d="M105.782 54.6421C105.638 54.291 105.422 53.9398 105.206 53.6588C104.918 53.3779 104.63 53.1672 104.199 53.0267C103.839 52.8863 103.335 52.816 102.831 52.816H97.5782V62.5786H99.737V59.2776H102.831C103.335 59.2776 103.839 59.2073 104.199 58.9966C104.63 58.8562 104.918 58.5752 105.206 58.2943C105.494 58.0134 105.638 57.6622 105.782 57.2408C105.926 56.8194 105.998 56.398 105.998 55.9766C105.998 55.4849 105.926 55.0635 105.782 54.6421ZM103.839 55.9063C103.839 56.398 103.695 56.7492 103.479 56.9599C103.263 57.1706 102.831 57.311 102.256 57.311H99.737V54.7124H102.256C102.759 54.7124 103.191 54.7826 103.479 54.9933C103.695 55.1338 103.839 55.4849 103.839 55.9063Z" fill="#00AF91"/>
    <path d="M115.568 62.5083V52.816H113.553L109.02 59.0669V52.816H106.861V62.5083H108.804L113.409 56.1873V62.5083H115.568Z" fill="#00AF91"/>
    <path d="M122.764 52.816H120.462L116.504 62.5786H118.806L119.886 59.9799H123.556L124.635 62.5786H126.866L122.764 52.816ZM120.534 58.0836L121.613 55.4147L122.764 58.0836H120.534Z" fill="#00AF91"/>
    <path d="M133.486 62.5084H135.645V52.7458H129.241L128.737 58.7157C128.737 58.9264 128.665 59.1371 128.665 59.3478C128.665 59.5585 128.593 59.699 128.593 59.8395C128.521 60.1204 128.449 60.3311 128.305 60.5418C128.161 60.6823 127.945 60.7525 127.658 60.7525H127.37V62.4381L127.514 62.5084C127.801 62.6488 128.017 62.7191 128.305 62.7191C128.737 62.7191 129.025 62.6488 129.313 62.4381C129.601 62.2976 129.816 62.087 130.032 61.806C130.176 61.5953 130.32 61.3144 130.464 60.9632C130.536 60.6823 130.608 60.4013 130.68 60.1204C130.752 59.9097 130.752 59.7692 130.752 59.5585L131.256 54.6421H133.486V62.5084Z" fill="#00AF91"/>
    <path d="M145.576 59.5585C145.576 58.5752 145.288 57.8729 144.784 57.311C144.208 56.7492 143.417 56.4682 142.337 56.4682H139.459V52.816H137.3V62.5786H142.122C142.625 62.5786 143.057 62.5083 143.489 62.4381C143.921 62.2976 144.28 62.1572 144.64 61.8762C144.928 61.5953 145.216 61.3144 145.36 60.9632C145.504 60.5418 145.576 60.0502 145.576 59.5585ZM139.459 58.3645H142.122C142.625 58.3645 143.057 58.4348 143.201 58.6455C143.417 58.8562 143.489 59.1371 143.489 59.4883C143.489 59.8395 143.417 60.1204 143.201 60.3311C142.985 60.5418 142.625 60.612 142.05 60.612H139.459V58.3645Z" fill="#00AF91"/>
    <path d="M155.002 62.5084V52.7458H152.844V56.398H148.526V52.7458H146.439V62.5084H148.526V58.2943H152.844V62.5084H155.002Z" fill="#00AF91"/>
    <path d="M167.524 52.816H165.365V62.5786H167.524V52.816Z" fill="#00AF91"/>
    <path d="M161.623 56.5385H158.744V52.816H156.586V62.5786H161.407C161.911 62.5786 162.342 62.5083 162.774 62.4381C163.206 62.2976 163.566 62.1572 163.926 61.8762C164.213 61.6655 164.501 61.3144 164.645 60.9632C164.789 60.612 164.933 60.1906 164.933 59.6287C164.933 58.6455 164.645 57.9431 164.141 57.3813C163.566 56.8194 162.702 56.5385 161.623 56.5385ZM162.774 59.4883C162.774 59.8395 162.702 60.1204 162.486 60.3311C162.27 60.5418 161.911 60.612 161.335 60.612H158.744V58.4348H161.407C162.055 58.4348 162.342 58.5752 162.486 58.7157C162.702 58.8562 162.774 59.1371 162.774 59.4883Z" fill="#00AF91"/>
    <path d="M171.122 62.5084L173.784 59.1371L173.928 58.9264L174 59.1371L176.734 62.5084H179.325L175.223 57.4515L178.533 53.097L176.447 52.6053L174.36 55.2742L173.928 56.0468L173.496 55.2742L171.409 52.6053L169.323 53.097L172.633 57.4515L168.531 62.5084H171.122Z" fill="#00AF91"/>
    <path d="M191.702 53.0267C191.27 52.8863 190.839 52.816 190.335 52.816H185.082V62.5786H187.241V59.2776H190.335C190.839 59.2776 191.342 59.2073 191.702 58.9966C192.134 58.8562 192.422 58.5752 192.71 58.2943C192.998 58.0134 193.141 57.6622 193.285 57.2408C193.429 56.8194 193.501 56.398 193.501 55.9766C193.501 55.5552 193.429 55.1338 193.285 54.7124C193.141 54.3612 192.926 54.01 192.71 53.7291C192.422 53.3779 192.062 53.1672 191.702 53.0267ZM191.342 55.9063C191.342 56.398 191.199 56.7492 190.983 56.9599C190.767 57.1706 190.335 57.311 189.759 57.311H187.241V54.7124H189.759C190.263 54.7124 190.695 54.7826 190.983 54.9933C191.199 55.1338 191.342 55.4849 191.342 55.9063Z" fill="#00AF91"/>
    <path d="M196.452 58.3645H201.273V56.398H196.452V54.7124H201.705L202.352 52.816H194.365V62.5083H202.208V60.612H196.452V58.3645Z" fill="#00AF91"/>
    <path d="M211.707 61.3846L211.923 61.1739L210.412 59.9097L210.268 60.0502C209.98 60.3311 209.692 60.4716 209.404 60.5418C209.117 60.612 208.757 60.6823 208.325 60.6823C207.749 60.6823 207.246 60.612 206.886 60.4716C206.526 60.3311 206.31 60.1204 206.094 59.9097C205.878 59.6288 205.734 59.3478 205.663 58.9264C205.591 58.505 205.519 58.0836 205.519 57.592V57.2408C205.519 56.3278 205.734 55.6956 206.166 55.204C206.598 54.7826 207.318 54.5017 208.253 54.5017C208.685 54.5017 209.045 54.5719 209.332 54.6421C209.62 54.7124 209.908 54.9231 210.196 55.1338L210.412 55.2742L211.923 53.8696L211.707 53.6589C211.275 53.2374 210.7 52.9565 210.124 52.7458C208.829 52.3244 207.318 52.3946 206.238 52.7458C205.591 52.9565 205.087 53.2374 204.655 53.6589C204.223 54.0803 203.935 54.5719 203.648 55.1338C203.432 55.6956 203.288 56.3278 203.288 57.0301V57.5217C203.288 58.2241 203.36 58.9264 203.576 59.5585C203.792 60.1906 204.079 60.6823 204.439 61.1739C204.871 61.5953 205.375 61.9465 206.022 62.2274C206.67 62.4381 207.39 62.5786 208.253 62.5786C208.901 62.5786 209.476 62.5084 210.052 62.2977C210.7 62.2274 211.203 61.8762 211.707 61.3846Z" fill="#00AF91"/>
    <path d="M217.248 57.7324L217.176 57.6622L214.514 52.6053L212.427 53.097L215.377 58.7859C215.521 58.9967 215.665 59.2074 215.809 59.4181C215.953 59.5585 216.097 59.6288 216.241 59.699L215.881 60.4716C215.809 60.612 215.737 60.6823 215.665 60.7525C215.521 60.8227 215.377 60.8227 215.233 60.8227H214.442V62.5084L214.658 62.5786C214.801 62.5786 214.945 62.6488 215.089 62.6488C215.305 62.7191 215.449 62.7191 215.665 62.7191C216.025 62.7191 216.313 62.6488 216.529 62.5786C216.744 62.5084 216.96 62.3679 217.104 62.2274C217.248 62.087 217.392 61.9465 217.536 61.7358C217.608 61.5953 217.752 61.3846 217.824 61.2441L221.782 53.097L219.767 52.6053L217.248 57.7324Z" fill="#00AF91"/>
    <path d="M230.201 53.6588C229.913 53.3779 229.625 53.1672 229.194 53.0267C228.762 52.8863 228.33 52.816 227.826 52.816H222.573V62.5786H224.732V59.2776H227.826C228.33 59.2776 228.834 59.2073 229.194 58.9966C229.625 58.8562 229.913 58.5752 230.201 58.2943C230.489 58.0134 230.633 57.6622 230.777 57.2408C230.921 56.8194 230.993 56.398 230.993 55.9766C230.993 55.5552 230.921 55.1338 230.777 54.7124C230.705 54.291 230.489 53.9398 230.201 53.6588ZM228.834 55.9063C228.834 56.398 228.69 56.7492 228.474 56.9599C228.258 57.1706 227.826 57.311 227.251 57.311H224.732V54.7124H227.251C227.754 54.7124 228.186 54.7826 228.474 54.9933C228.762 55.1338 228.834 55.4849 228.834 55.9063Z" fill="#00AF91"/>
    <path d="M238.476 60.1204C238.189 60.4013 237.901 60.5418 237.613 60.612C237.325 60.6823 236.965 60.7525 236.533 60.7525C235.958 60.7525 235.454 60.6823 235.094 60.5418C234.734 60.4013 234.519 60.1906 234.303 59.9799C234.087 59.699 233.943 59.4181 233.871 58.9966C233.799 58.5752 233.727 58.1538 233.727 57.6622V57.2408C233.727 56.3278 233.943 55.6956 234.375 55.204C234.806 54.7826 235.526 54.5017 236.462 54.5017C236.893 54.5017 237.253 54.5719 237.541 54.6421C237.829 54.7124 238.117 54.9231 238.404 55.1338L238.62 55.2742L240.132 53.8696L239.916 53.6589C239.484 53.2374 238.908 52.9565 238.333 52.7458C237.037 52.3244 235.526 52.3946 234.447 52.7458C233.799 52.9565 233.295 53.2374 232.863 53.6589C232.432 54.0803 232.144 54.5719 231.856 55.1338C231.64 55.6956 231.496 56.3278 231.496 57.0301V57.5217C231.496 58.2241 231.568 58.9264 231.784 59.5585C232 60.1906 232.288 60.6823 232.648 61.1739C233.079 61.5953 233.583 61.9465 234.231 62.2274C234.878 62.4381 235.598 62.5786 236.462 62.5786C237.109 62.5786 237.685 62.5084 238.261 62.2977C238.836 62.0869 239.34 61.806 239.844 61.3144L240.06 61.1037L238.548 59.8395L238.476 60.1204Z" fill="#00AF91"/>
    <path d="M249.846 53.9398C249.414 53.5184 248.839 53.2374 248.191 52.9565C246.968 52.5351 245.313 52.5351 244.089 52.9565C243.442 53.1672 242.938 53.5184 242.434 53.9398C242.002 54.3612 241.643 54.8528 241.355 55.4147C241.067 55.9766 240.995 56.6087 240.995 57.311V57.6622C240.995 58.3645 241.139 59.0669 241.355 59.699C241.571 60.3311 241.931 60.8227 242.362 61.3144C242.794 61.7358 243.37 62.087 243.945 62.3679C244.593 62.5786 245.313 62.7191 246.176 62.7191C247.04 62.7191 247.759 62.5786 248.407 62.3679C249.055 62.087 249.558 61.7358 249.99 61.3144C250.422 60.893 250.782 60.3311 250.998 59.699C251.213 59.0669 251.285 58.4348 251.285 57.6622V57.311C251.285 56.6087 251.141 55.9766 250.926 55.4147C250.638 54.8528 250.278 54.3612 249.846 53.9398ZM249.055 57.311V57.592C249.055 58.0836 248.983 58.505 248.911 58.9264C248.839 59.2776 248.623 59.6288 248.407 59.9097C248.191 60.1906 247.903 60.4013 247.543 60.5418C247.184 60.6823 246.68 60.7525 246.104 60.7525C245.529 60.7525 245.097 60.6823 244.737 60.5418C244.377 60.4013 244.089 60.1906 243.873 59.9097C243.658 59.6288 243.514 59.2776 243.37 58.9264C243.298 58.505 243.226 58.0836 243.226 57.6622V57.3813C243.226 56.5385 243.442 55.8361 243.945 55.3445C244.449 54.8528 245.169 54.5719 246.104 54.5719C247.04 54.5719 247.831 54.8528 248.263 55.3445C248.839 55.7659 249.055 56.4682 249.055 57.311Z" fill="#00AF91"/>
    <path d="M260.568 58.1538C260.352 57.8027 259.993 57.5217 259.561 57.311C260.136 56.8194 260.352 56.1873 260.352 55.4849C260.352 55.0635 260.28 54.6421 260.136 54.291C259.993 53.9398 259.777 53.6589 259.417 53.4482C259.129 53.2375 258.769 53.097 258.409 52.9565C258.05 52.8863 257.618 52.816 257.186 52.816H252.581V62.5786H257.402C257.906 62.5786 258.337 62.5083 258.769 62.4381C259.201 62.2976 259.561 62.1572 259.921 61.9465C260.28 61.7358 260.496 61.3846 260.712 61.0334C260.928 60.6823 261 60.2609 261 59.699C261 59.0669 260.856 58.505 260.568 58.1538ZM257.906 56.2575C257.69 56.398 257.402 56.4682 257.042 56.4682H254.739V54.6421H257.114C257.474 54.6421 257.762 54.7124 257.978 54.7826C258.05 54.7826 258.194 54.9231 258.194 55.3445C258.194 55.8361 258.05 56.117 257.906 56.2575ZM258.913 59.4883C258.913 59.8395 258.769 60.1204 258.553 60.3311C258.337 60.5418 257.906 60.612 257.402 60.612H254.739V58.4348H257.474C257.978 58.4348 258.337 58.505 258.553 58.7157C258.841 58.8562 258.913 59.0669 258.913 59.4883Z" fill="#00AF91"/>
    <path d="M56.7047 72.903H57.3524V68.1271H60.2308V67.5652H56.7047V72.903Z" fill="#00AF91"/>
    <path d="M63.9008 67.4247C63.0372 67.4247 62.3896 67.7057 61.8139 68.1973C61.3102 68.689 61.0223 69.3913 61.0223 70.2341C61.0223 71.0067 61.3102 71.709 61.8139 72.2709C62.3896 72.8328 63.0372 73.0435 63.9008 73.0435C64.7643 73.0435 65.4119 72.7625 65.9876 72.2709C66.5633 71.709 66.7792 71.0769 66.7792 70.2341C66.7792 69.3913 66.4913 68.7592 65.9876 68.1973C65.4119 67.7057 64.7643 67.4247 63.9008 67.4247ZM65.5558 71.8495C65.1241 72.2709 64.6204 72.4816 63.9727 72.4816C63.3251 72.4816 62.7494 72.2709 62.3896 71.8495C61.9578 71.4281 61.8139 70.8662 61.8139 70.2341C61.8139 69.602 62.0298 69.0401 62.3896 68.6187C62.8213 68.1973 63.3251 67.9866 63.9727 67.9866C64.6204 67.9866 65.196 68.1973 65.5558 68.6187C65.9876 69.0401 66.1315 69.602 66.1315 70.2341C66.1315 70.8662 65.9156 71.4281 65.5558 71.8495Z" fill="#00AF91"/>
    <path d="M70.9528 72.4816C70.3052 72.4816 69.8015 72.2709 69.3697 71.8495C68.938 71.4281 68.794 70.8662 68.794 70.2341C68.794 69.602 69.0099 69.0401 69.3697 68.6187C69.8015 68.1973 70.3052 67.9866 70.9528 67.9866C71.2407 67.9866 71.5285 68.0569 71.8164 68.1973C72.1042 68.3378 72.3201 68.4783 72.464 68.689L72.8958 68.3378C72.464 67.7759 71.8164 67.495 70.9528 67.495C70.1613 67.495 69.4417 67.7759 68.938 68.2675C68.4342 68.7592 68.1464 69.4615 68.1464 70.3043C68.1464 71.1472 68.4342 71.7793 68.938 72.3411C69.4417 72.8328 70.1613 73.1137 70.9528 73.1137C71.7444 73.1137 72.464 72.8328 72.9677 72.2709L72.536 71.9197C72.1042 72.2709 71.6005 72.4816 70.9528 72.4816Z" fill="#00AF91"/>
    <path d="M76.206 72.2709L74.335 67.6354H73.6154L75.9181 72.9732L75.4144 74.097C75.2705 74.4482 75.1265 74.6589 74.9826 74.7993C74.8387 74.9398 74.6228 75.01 74.335 75.01C74.1191 75.01 73.9752 75.01 73.8313 74.9398L73.7593 75.5017C73.9752 75.5719 74.1911 75.5719 74.407 75.5719C74.8387 75.5719 75.1265 75.4314 75.3424 75.2207C75.5583 75.01 75.7742 74.6589 75.9901 74.3077L78.7246 67.495H78.005L76.206 72.2709Z" fill="#00AF91"/>
    <path d="M84.4094 67.5652H80.5955V68.9699C80.5955 69.7425 80.5236 70.3746 80.3077 70.9365C80.1638 71.4983 79.9479 71.99 79.66 72.2709H79.0124V74.5184H79.5881V72.7625H84.6973V74.5184H85.273V72.2709H84.4094V67.5652ZM83.7618 72.3411H80.3796C80.8834 71.4983 81.1712 70.4448 81.1712 69.1806V68.1271H83.7618V72.3411Z" fill="#00AF91"/>
    <path d="M90.8139 69.3913C90.8139 68.7592 90.598 68.2676 90.2382 67.9866C89.8784 67.6354 89.3747 67.495 88.727 67.495C87.8635 67.495 87.2159 67.7057 86.7122 68.1973L87.072 68.6187C87.5037 68.1973 88.0794 67.9866 88.727 67.9866C89.7345 67.9866 90.2382 68.4782 90.2382 69.4615V69.6722H89.8064C89.4466 69.6722 89.0868 69.6722 88.799 69.6722C88.5112 69.6722 88.2233 69.7425 87.8635 69.8127C87.5757 69.8829 87.2878 69.9532 87.072 70.0936C86.8561 70.2341 86.7121 70.3746 86.5682 70.5853C86.4243 70.796 86.3524 71.0769 86.3524 71.3579C86.3524 71.8495 86.5682 72.2709 86.928 72.5518C87.2878 72.8328 87.7196 72.9732 88.2233 72.9732C89.1588 72.9732 89.8064 72.6221 90.2382 71.8495C90.2382 72.1304 90.2382 72.4816 90.3102 72.8328H90.8858C90.8139 72.4816 90.8139 72.1304 90.8139 71.6388V69.3913ZM90.2382 70.5853C90.2382 71.1471 90.0943 71.5685 89.7345 71.9197C89.4466 72.2709 88.9429 72.4816 88.3672 72.4816C88.0074 72.4816 87.6476 72.4114 87.4318 72.2007C87.1439 71.99 87 71.709 87 71.3579C87 70.515 87.9355 70.0936 89.8064 70.0936H90.2382V70.5853Z" fill="#00AF91"/>
    <path d="M95.7072 67.4247C95.2754 67.4247 94.8437 67.495 94.4839 67.7057C94.1241 67.9164 93.7643 68.1973 93.5484 68.6187V67.5652H92.9007V75.5719H93.5484V71.8495C93.7643 72.2007 94.0521 72.5518 94.4839 72.6923C94.9156 72.903 95.2754 72.9732 95.7791 72.9732C96.5707 72.9732 97.2903 72.6923 97.794 72.2007C98.2978 71.6388 98.5856 71.0067 98.5856 70.1639C98.5856 69.3913 98.2978 68.689 97.794 68.1973C97.2184 67.7057 96.5707 67.4247 95.7072 67.4247ZM97.2903 71.8495C96.9305 72.2709 96.3548 72.4816 95.7072 72.4816C95.0596 72.4816 94.5558 72.2709 94.1241 71.8495C93.6923 71.4281 93.4764 70.8662 93.4764 70.2341C93.4764 69.602 93.6923 69.0401 94.1241 68.6187C94.5558 68.1973 95.0596 67.9866 95.7072 67.9866C96.3548 67.9866 96.8585 68.1973 97.2903 68.6187C97.6501 69.0401 97.866 69.602 97.866 70.2341C97.866 70.8662 97.6501 71.4281 97.2903 71.8495Z" fill="#00AF91"/>
    <path d="M102.687 72.4816C102.04 72.4816 101.536 72.2709 101.104 71.8495C100.672 71.4281 100.529 70.8662 100.529 70.2341C100.529 69.602 100.744 69.0401 101.104 68.6187C101.536 68.1973 102.04 67.9866 102.687 67.9866C102.975 67.9866 103.263 68.0569 103.551 68.1973C103.839 68.3378 104.055 68.4783 104.199 68.689L104.63 68.3378C104.199 67.7759 103.551 67.495 102.687 67.495C101.896 67.495 101.176 67.7759 100.672 68.2675C100.169 68.7592 99.8809 69.4615 99.8809 70.3043C99.8809 71.1472 100.169 71.7793 100.672 72.3411C101.176 72.8328 101.896 73.1137 102.687 73.1137C103.479 73.1137 104.199 72.8328 104.702 72.2709L104.27 71.9197C103.839 72.2709 103.335 72.4816 102.687 72.4816Z" fill="#00AF91"/>
    <path d="M105.422 68.1271H107.437V72.903H108.012V68.1271H110.027V67.5652H105.422V68.1271Z" fill="#00AF91"/>
    <path d="M114.561 70.0936C114.849 70.0234 115.065 69.8829 115.28 69.6722C115.496 69.4615 115.568 69.2508 115.568 68.8997C115.568 68.408 115.424 68.0569 115.065 67.8462C114.705 67.6355 114.345 67.5652 113.841 67.5652H111.395V72.8328H113.913C114.489 72.8328 114.921 72.6923 115.28 72.4816C115.64 72.2007 115.784 71.8495 115.784 71.4281C115.784 71.0067 115.64 70.7257 115.424 70.515C115.208 70.3043 114.921 70.1639 114.561 70.0936ZM112.042 68.1271H113.697C114.057 68.1271 114.345 68.1973 114.561 68.3378C114.777 68.4783 114.921 68.689 114.921 68.9699C114.921 69.2508 114.777 69.4615 114.561 69.602C114.345 69.7425 114.057 69.8127 113.769 69.8127H111.97V68.1271H112.042ZM114.777 72.1304C114.489 72.2709 114.201 72.3411 113.769 72.3411H112.042V70.3746H113.913C114.273 70.3746 114.633 70.4448 114.849 70.6555C115.065 70.796 115.208 71.0769 115.208 71.4281C115.136 71.709 115.065 71.99 114.777 72.1304Z" fill="#00AF91"/>
    <path d="M119.886 67.4247C119.094 67.4247 118.519 67.7057 117.943 68.1973C117.439 68.7592 117.151 69.3913 117.151 70.1639C117.151 71.0067 117.439 71.6388 117.943 72.2007C118.447 72.7625 119.094 72.9732 119.886 72.9732C120.821 72.9732 121.613 72.6221 122.189 71.8495L121.757 71.4983C121.253 72.1304 120.605 72.4114 119.886 72.4114C119.238 72.4114 118.735 72.2007 118.375 71.7793C118.015 71.3579 117.799 70.8662 117.799 70.3043H122.404V69.9532C122.404 69.2508 122.189 68.6187 121.757 68.1271C121.325 67.7057 120.677 67.4247 119.886 67.4247ZM117.871 69.8829C117.871 69.3913 118.087 68.9699 118.447 68.5485C118.806 68.1271 119.31 67.9164 119.886 67.9164C120.462 67.9164 120.965 68.1271 121.253 68.4783C121.613 68.8294 121.757 69.3211 121.829 69.8829H117.871Z" fill="#00AF91"/>
    <path d="M128.161 69.8829H124.851V67.5652H124.203V72.903H124.851V70.3746H128.161V72.903H128.809V67.5652H128.161V69.8829Z" fill="#00AF91"/>
    <path d="M134.998 69.8829H131.615V67.5652H131.04V72.903H131.615V70.3746H134.998V72.903H135.645V67.5652H134.998V69.8829Z" fill="#00AF91"/>
    <path d="M140.251 67.4247C139.387 67.4247 138.739 67.7057 138.164 68.1973C137.66 68.689 137.372 69.3913 137.372 70.2341C137.372 71.0067 137.66 71.709 138.164 72.2709C138.739 72.8328 139.387 73.0435 140.251 73.0435C141.114 73.0435 141.762 72.7625 142.337 72.2709C142.913 71.709 143.129 71.0769 143.129 70.2341C143.129 69.3913 142.841 68.7592 142.337 68.1973C141.762 67.7057 141.114 67.4247 140.251 67.4247ZM141.834 71.8495C141.402 72.2709 140.898 72.4816 140.251 72.4816C139.603 72.4816 139.027 72.2709 138.667 71.8495C138.236 71.4281 138.092 70.8662 138.092 70.2341C138.092 69.602 138.308 69.0401 138.667 68.6187C139.099 68.1973 139.603 67.9866 140.251 67.9866C140.898 67.9866 141.474 68.1973 141.834 68.6187C142.265 69.0401 142.409 69.602 142.409 70.2341C142.481 70.8662 142.265 71.4281 141.834 71.8495Z" fill="#00AF91"/>
    <path d="M147.159 67.4247C146.367 67.4247 145.792 67.7057 145.216 68.1973C144.712 68.7592 144.424 69.3913 144.424 70.1639C144.424 71.0067 144.712 71.6388 145.216 72.2007C145.72 72.7625 146.367 72.9732 147.159 72.9732C148.094 72.9732 148.886 72.6221 149.462 71.8495L149.03 71.4983C148.526 72.1304 147.878 72.4114 147.159 72.4114C146.511 72.4114 146.007 72.2007 145.648 71.7793C145.288 71.3579 145.072 70.8662 145.072 70.3043H149.677V69.9532C149.677 69.2508 149.462 68.6187 149.03 68.1271C148.598 67.7057 148.022 67.4247 147.159 67.4247ZM145.144 69.8829C145.144 69.3913 145.36 68.9699 145.72 68.5485C146.079 68.1271 146.583 67.9164 147.159 67.9164C147.735 67.9164 148.238 68.1271 148.526 68.4783C148.886 68.8294 149.03 69.3211 149.102 69.8829H145.144Z" fill="#00AF91"/>
    <path d="M156.154 72.2709L154.283 67.6355H153.563L155.866 72.9732L155.434 74.1672C155.29 74.5184 155.146 74.7291 155.002 74.8696C154.859 75.01 154.643 75.0803 154.355 75.0803C154.139 75.0803 153.995 75.0803 153.851 75.01L153.779 75.5719C153.995 75.6421 154.211 75.6421 154.427 75.6421C154.859 75.6421 155.146 75.5017 155.362 75.291C155.578 75.0803 155.794 74.7291 156.01 74.3779L158.744 67.5652H158.025L156.154 72.2709Z" fill="#00AF91"/>
    <path d="M163.206 70.0936C162.63 70.2341 162.127 70.3044 161.695 70.3044C161.263 70.3044 160.903 70.2341 160.687 70.0234C160.471 69.8829 160.399 69.5318 160.399 69.1104V67.5652H159.752V69.1806C159.752 70.3043 160.328 70.796 161.551 70.796C162.127 70.796 162.63 70.7258 163.206 70.5853V72.8328H163.854V67.5652H163.206V70.0936Z" fill="#00AF91"/>
    <path d="M168.819 67.4247C168.387 67.4247 167.955 67.495 167.596 67.7057C167.236 67.9164 166.876 68.1973 166.66 68.6187V67.5652H166.012V75.5719H166.66V71.8495C166.876 72.2007 167.164 72.5518 167.596 72.6923C168.027 72.903 168.387 72.9732 168.891 72.9732C169.682 72.9732 170.402 72.6923 170.906 72.2007C171.409 71.709 171.697 71.0067 171.697 70.1639C171.697 69.3913 171.409 68.689 170.906 68.1973C170.33 67.7057 169.682 67.4247 168.819 67.4247ZM170.402 71.8495C170.042 72.2709 169.466 72.4816 168.819 72.4816C168.171 72.4816 167.667 72.2709 167.236 71.8495C166.804 71.4281 166.588 70.8662 166.588 70.2341C166.588 69.602 166.804 69.0401 167.236 68.6187C167.667 68.1973 168.171 67.9866 168.819 67.9866C169.466 67.9866 169.97 68.1973 170.402 68.6187C170.762 69.0401 170.978 69.602 170.978 70.2341C170.978 70.8662 170.762 71.4281 170.402 71.8495Z" fill="#00AF91"/>
    <path d="M175.655 67.4247C174.864 67.4247 174.288 67.7057 173.712 68.1973C173.208 68.7592 172.921 69.3913 172.921 70.1639C172.921 71.0067 173.208 71.6388 173.712 72.2007C174.216 72.7625 174.864 72.9732 175.655 72.9732C176.591 72.9732 177.382 72.6221 177.958 71.8495L177.526 71.4983C177.022 72.1304 176.375 72.4114 175.655 72.4114C175.007 72.4114 174.504 72.2007 174.144 71.7793C173.784 71.3579 173.568 70.8662 173.568 70.3043H178.174V69.9532C178.174 69.2508 177.958 68.6187 177.526 68.1271C177.094 67.7057 176.447 67.4247 175.655 67.4247ZM173.64 69.8829C173.64 69.3913 173.856 68.9699 174.216 68.5485C174.576 68.1271 175.079 67.9164 175.655 67.9164C176.231 67.9164 176.734 68.1271 177.022 68.4783C177.382 68.8294 177.526 69.3211 177.598 69.8829H173.64Z" fill="#00AF91"/>
    <path d="M186.737 67.5652H185.873L183.283 70.0936V67.5652H182.635V70.0936L180.045 67.5652H179.109L181.844 70.0936L178.821 72.903H179.757L182.635 70.1639V72.903H183.283V70.1639L186.089 72.903H187.025L184.074 70.0936L186.737 67.5652Z" fill="#00AF91"/>
    <path d="M192.854 67.5652H189.04V68.9699C189.04 69.7425 188.968 70.3746 188.752 70.9365C188.608 71.4983 188.392 71.99 188.104 72.2709H187.457V74.5184H188.032V72.7625H193.141V74.5184H193.717V72.2709H192.854V67.5652ZM192.278 72.3411H188.896C189.4 71.4983 189.687 70.4448 189.687 69.1806V68.1271H192.278V72.3411Z" fill="#00AF91"/>
    <path d="M197.531 67.4247C196.739 67.4247 196.164 67.7057 195.588 68.1973C195.084 68.7592 194.797 69.3913 194.797 70.1639C194.797 71.0067 195.084 71.6388 195.588 72.2007C196.092 72.7625 196.739 72.9732 197.531 72.9732C198.466 72.9732 199.258 72.6221 199.834 71.8495L199.402 71.4983C198.898 72.1304 198.251 72.4114 197.531 72.4114C196.883 72.4114 196.38 72.2007 196.02 71.7793C195.66 71.3579 195.444 70.8662 195.444 70.3043H200.05V69.9532C200.05 69.2508 199.834 68.6187 199.402 68.1271C198.97 67.7057 198.323 67.4247 197.531 67.4247ZM195.516 69.8829C195.516 69.3913 195.732 68.9699 196.092 68.5485C196.452 68.1271 196.955 67.9164 197.531 67.9164C198.107 67.9164 198.61 68.1271 198.898 68.4783C199.258 68.8294 199.402 69.3211 199.474 69.8829H195.516Z" fill="#00AF91"/>
    <path d="M205.878 69.8829H202.496V67.5652H201.849V72.903H202.496V70.3746H205.878V72.903H206.454V67.5652H205.878V69.8829Z" fill="#00AF91"/>
    <path d="M209.332 72.0602V67.5652H208.685V72.903H209.404L212.787 68.408V72.903H213.434V67.5652H212.715L209.332 72.0602Z" fill="#00AF91"/>
    <path d="M217.896 67.4247C217.104 67.4247 216.529 67.7057 215.953 68.1973C215.449 68.7592 215.161 69.3913 215.161 70.1639C215.161 71.0067 215.449 71.6388 215.953 72.2007C216.457 72.7625 217.104 72.9732 217.896 72.9732C218.831 72.9732 219.623 72.6221 220.199 71.8495L219.767 71.4983C219.263 72.1304 218.615 72.4114 217.896 72.4114C217.248 72.4114 216.744 72.2007 216.385 71.7793C216.025 71.3579 215.809 70.8662 215.809 70.3043H220.414V69.9532C220.414 69.2508 220.199 68.6187 219.767 68.1271C219.335 67.7057 218.687 67.4247 217.896 67.4247ZM215.881 69.8829C215.881 69.3913 216.097 68.9699 216.457 68.5485C216.816 68.1271 217.32 67.9164 217.896 67.9164C218.471 67.9164 218.975 68.1271 219.263 68.4783C219.623 68.8294 219.767 69.3211 219.839 69.8829H215.881Z" fill="#00AF91"/>
    <path d="M11.2978 55.2742L19.5732 48.1104C20.6526 52.1137 22.8114 55.7659 25.9057 58.7859C30.5112 63.2809 36.5558 65.7391 43.0323 65.7391V62.087L53.1067 73.0435L43.0323 84V80.0669C32.598 80.0669 22.8114 76.0635 15.4715 68.8997C9.93052 63.4916 6.3325 56.8194 4.82133 49.5853L11.2978 55.2742Z" fill="#FFB71B"/>
    <path d="M4.10174 41.8595C4.10174 31.6756 8.20348 22.1237 15.5434 14.9599C21.0844 9.62207 27.9206 6.04013 35.3325 4.56522L29.4318 10.9565L36.7717 19.0334C32.67 20.087 28.928 22.194 25.8338 25.214C21.2283 29.709 18.7097 35.6087 18.7097 41.9298H22.4516L11.2258 51.7625L0 41.9298H4.10174V41.8595Z" fill="#00AF91"/>
    <path d="M81.459 34.4147C79.9479 27.1104 76.2779 20.4381 70.8089 15.1003C63.469 7.93645 53.6824 3.93311 43.2481 3.93311V0L33.1737 10.9565L43.2481 21.913V18.2609C49.7246 18.2609 55.8412 20.7893 60.3747 25.214C63.469 28.2341 65.6278 31.8863 66.7072 35.8896H75.1985H81.7469L81.459 34.4147Z" fill="#FFB71B"/>
</svg>