<svg width="200" height="72" viewBox="0 0 200 72" fill="none" xmlns="http://www.w3.org/2000/svg">
    <rect width="200" height="72" rx="36" fill="#FFB71B"/>
    <path d="M35.876 40.5V32.004H43.244V40.5H41.192V33.744H37.928V40.5H35.876ZM49.2172 40.728C47.8812 40.728 46.7772 40.312 45.9052 39.48C45.0332 38.64 44.5972 37.552 44.5972 36.216C44.5972 34.872 45.0292 33.796 45.8932 32.988C46.7652 32.18 47.8732 31.776 49.2172 31.776C50.5692 31.776 51.6772 32.18 52.5412 32.988C53.4132 33.796 53.8492 34.872 53.8492 36.216C53.8492 37.552 53.4132 38.64 52.5412 39.48C51.6692 40.312 50.5612 40.728 49.2172 40.728ZM47.4652 38.112C47.9212 38.608 48.5052 38.856 49.2172 38.856C49.9292 38.856 50.5132 38.608 50.9692 38.112C51.4252 37.616 51.6532 36.984 51.6532 36.216C51.6532 35.464 51.4252 34.844 50.9692 34.356C50.5132 33.868 49.9292 33.624 49.2172 33.624C48.5052 33.624 47.9212 33.868 47.4652 34.356C47.0172 34.844 46.7932 35.464 46.7932 36.216C46.7932 36.984 47.0172 37.616 47.4652 38.112ZM54.2338 42.312V38.748H54.9778C55.7458 37.796 56.1298 36.268 56.1298 34.164V32.004H62.5618V38.748H63.4978V42.312H61.6978V40.5H56.0338V42.312H54.2338ZM57.1978 38.748H60.5098V33.744H58.1098V34.428C58.1098 36.356 57.8058 37.796 57.1978 38.748ZM63.5664 40.5L67.1304 32.004H69.1224L72.6504 40.5H70.3704L69.7104 38.832H66.4224L65.7984 40.5H63.5664ZM67.0104 37.188H69.1464L68.0904 34.272L67.0104 37.188ZM74.2217 40.5V33.756H71.8217V32.004H78.6737V33.756H76.2737V40.5H74.2217ZM79.6104 40.5V32.004H81.6624V35.124H82.7424C83.7184 35.124 84.5144 35.34 85.1304 35.772C85.7464 36.204 86.0544 36.88 86.0544 37.8C86.0544 38.704 85.7424 39.38 85.1184 39.828C84.4944 40.276 83.7064 40.5 82.7544 40.5H79.6104ZM81.6624 38.868H82.5864C83.5384 38.868 84.0144 38.508 84.0144 37.788C84.0144 37.076 83.5384 36.72 82.5864 36.72H81.6624V38.868ZM94.5102 40.728C93.1742 40.728 92.0702 40.312 91.1982 39.48C90.3262 38.64 89.8902 37.552 89.8902 36.216C89.8902 34.872 90.3222 33.796 91.1862 32.988C92.0582 32.18 93.1662 31.776 94.5102 31.776C95.8622 31.776 96.9702 32.18 97.8342 32.988C98.7062 33.796 99.1422 34.872 99.1422 36.216C99.1422 37.552 98.7062 38.64 97.8342 39.48C96.9622 40.312 95.8542 40.728 94.5102 40.728ZM92.7582 38.112C93.2142 38.608 93.7982 38.856 94.5102 38.856C95.2222 38.856 95.8062 38.608 96.2622 38.112C96.7182 37.616 96.9462 36.984 96.9462 36.216C96.9462 35.464 96.7182 34.844 96.2622 34.356C95.8062 33.868 95.2222 33.624 94.5102 33.624C93.7982 33.624 93.2142 33.868 92.7582 34.356C92.3102 34.844 92.0862 35.464 92.0862 36.216C92.0862 36.984 92.3102 37.616 92.7582 38.112ZM101.714 40.5V33.756H99.3139V32.004H106.166V33.756H103.766V40.5H101.714ZM111.723 40.5V37.356C111.091 37.532 110.459 37.62 109.827 37.62C108.859 37.62 108.143 37.424 107.679 37.032C107.223 36.632 106.995 36 106.995 35.136V32.004H109.023V34.62C109.023 35.1 109.127 35.44 109.335 35.64C109.551 35.84 109.903 35.94 110.391 35.94C110.975 35.94 111.419 35.868 111.723 35.724V32.004H113.775V40.5H111.723ZM115.528 40.5V32.004H121.24V33.744H117.508V35.34H121.036V36.984H117.508V38.748H121.456V40.5H115.528ZM120.34 29.616C120.54 29.8 120.64 30.028 120.64 30.3C120.64 30.572 120.54 30.804 120.34 30.996C120.148 31.188 119.916 31.284 119.644 31.284C119.364 31.284 119.128 31.188 118.936 30.996C118.744 30.804 118.648 30.572 118.648 30.3C118.648 30.036 118.744 29.808 118.936 29.616C119.128 29.424 119.364 29.328 119.644 29.328C119.916 29.328 120.148 29.424 120.34 29.616ZM117.736 29.616C117.936 29.8 118.036 30.028 118.036 30.3C118.036 30.572 117.936 30.804 117.736 30.996C117.544 31.188 117.308 31.284 117.028 31.284C116.756 31.284 116.52 31.188 116.32 30.996C116.128 30.804 116.032 30.572 116.032 30.3C116.032 30.036 116.128 29.808 116.32 29.616C116.52 29.424 116.756 29.328 117.028 29.328C117.308 29.328 117.544 29.424 117.736 29.616ZM124.401 40.5V33.756H122.001V32.004H128.853V33.756H126.453V40.5H124.401Z" fill="#415861"/>
    <path fill-rule="evenodd" clip-rule="evenodd" d="M154 27C150.67 27 147.761 28.808 146.203 31.5007C145.927 31.9788 145.315 32.1421 144.837 31.8656C144.359 31.5891 144.196 30.9773 144.472 30.4993C146.373 27.214 149.927 25 154 25C160.075 25 165 29.9249 165 36C165 42.0751 160.075 47 154 47C149.927 47 146.373 44.786 144.472 41.5007C144.196 41.0227 144.359 40.4109 144.837 40.1344C145.315 39.8579 145.927 40.0212 146.203 40.4993C147.761 43.192 150.67 45 154 45C158.971 45 163 40.9706 163 36C163 31.0294 158.971 27 154 27ZM153.293 32.7071C152.902 32.3166 152.902 31.6834 153.293 31.2929C153.683 30.9024 154.317 30.9024 154.707 31.2929L158.707 35.2929C159.098 35.6834 159.098 36.3166 158.707 36.7071L154.707 40.7071C154.317 41.0976 153.683 41.0976 153.293 40.7071C152.902 40.3166 152.902 39.6834 153.293 39.2929L155.586 37H145C144.448 37 144 36.5523 144 36C144 35.4477 144.448 35 145 35H155.586L153.293 32.7071Z" fill="#415861"/>
</svg>