<svg width="25" height="25" viewBox="0 0 25 25" fill="none" xmlns="http://www.w3.org/2000/svg">
    <path fill-rule="evenodd" clip-rule="evenodd" d="M5.99681 8.03845C4.26052 9.53134 3.04546 11.2856 2.43146 12.2872C2.39072 12.3537 2.36223 12.4002 2.33841 12.4406C2.3227 12.4673 2.31233 12.4857 2.30539 12.4986C2.30539 12.499 2.30539 12.4995 2.30539 12.5C2.30539 12.5005 2.30539 12.501 2.30539 12.5014C2.31233 12.5143 2.3227 12.5327 2.33841 12.5594C2.36223 12.5998 2.39072 12.6464 2.43146 12.7128C3.04546 13.7144 4.26052 15.4687 5.99681 16.9615C7.7304 18.4521 9.91412 19.625 12.5 19.625C15.0859 19.625 17.2696 18.4521 19.0032 16.9615C20.7395 15.4687 21.9545 13.7144 22.5685 12.7128C22.6093 12.6463 22.6378 12.5998 22.6616 12.5594C22.6773 12.5327 22.6877 12.5143 22.6946 12.5014C22.6946 12.501 22.6946 12.5005 22.6946 12.5C22.6946 12.4995 22.6946 12.499 22.6946 12.4986C22.6877 12.4857 22.6773 12.4673 22.6616 12.4406C22.6378 12.4002 22.6093 12.3537 22.5685 12.2872C21.9545 11.2856 20.7395 9.53134 19.0032 8.03845C17.2696 6.54789 15.0859 5.375 12.5 5.375C9.91412 5.375 7.73039 6.54789 5.99681 8.03845ZM4.5196 6.21507C6.51215 4.50186 9.20137 3 12.5 3C15.7986 3 18.4879 4.50186 20.4804 6.21507C22.4702 7.92596 23.8345 9.90446 24.5177 11.019C24.5268 11.0337 24.536 11.0488 24.5455 11.0641C24.6811 11.284 24.8571 11.5694 24.9461 11.9694C25.018 12.2923 25.018 12.7077 24.9461 13.0306C24.8571 13.4306 24.6811 13.716 24.5455 13.9359C24.536 13.9512 24.5268 13.9663 24.5177 13.981C23.8345 15.0955 22.4702 17.074 20.4804 18.7849C18.4879 20.4981 15.7986 22 12.5 22C9.20137 22 6.51215 20.4981 4.5196 18.7849C2.52976 17.074 1.16551 15.0955 0.482255 13.981C0.473227 13.9663 0.463959 13.9512 0.454493 13.9359C0.318912 13.716 0.142879 13.4306 0.0538894 13.0306C-0.0179631 12.7077 -0.0179631 12.2923 0.0538894 11.9694C0.142879 11.5694 0.318912 11.284 0.454493 11.0641C0.463959 11.0488 0.473227 11.0337 0.482255 11.019C1.16551 9.90447 2.52976 7.92596 4.5196 6.21507ZM12.5 10.125C11.2268 10.125 10.1946 11.1883 10.1946 12.5C10.1946 13.8117 11.2268 14.875 12.5 14.875C13.7732 14.875 14.8054 13.8117 14.8054 12.5C14.8054 11.1883 13.7732 10.125 12.5 10.125ZM7.88922 12.5C7.88922 9.87665 9.95354 7.75 12.5 7.75C15.0465 7.75 17.1108 9.87665 17.1108 12.5C17.1108 15.1234 15.0465 17.25 12.5 17.25C9.95354 17.25 7.88922 15.1234 7.88922 12.5Z" fill="#415861"/>
</svg>