<svg width="25" height="25" viewBox="0 0 25 25" fill="none" xmlns="http://www.w3.org/2000/svg">
    <path fill-rule="evenodd" clip-rule="evenodd" d="M6.03642 2.55715C5.69212 2.383 5.28551 2.383 4.94121 2.55715C4.81173 2.62264 4.65031 2.76249 3.9381 3.47471L3.74684 3.66596C3.06715 4.34566 2.88394 4.54223 2.73748 4.80295C2.56773 5.10513 2.42551 5.652 2.42655 5.9986C2.42746 6.30702 2.473 6.49276 2.6735 7.19919C3.66305 10.6856 5.52979 13.9757 8.27703 16.723C11.0243 19.4702 14.3144 21.3369 17.8008 22.3265C18.5072 22.527 18.693 22.5725 19.0014 22.5735C19.348 22.5745 19.8949 22.4323 20.1971 22.2625C20.4578 22.1161 20.6543 21.9329 21.334 21.2532L21.5253 21.0619C22.2375 20.3497 22.3774 20.1883 22.4428 20.0588C22.617 19.7145 22.617 19.3079 22.4428 18.9636C22.3774 18.8341 22.2375 18.6727 21.5253 17.9605L22.3832 17.1026L21.5253 17.9605L21.2889 17.724C20.8209 17.2561 20.7157 17.1602 20.6359 17.1084C20.2338 16.8469 19.7154 16.8469 19.3132 17.1084C19.2335 17.1602 19.1283 17.2561 18.6603 17.724C18.651 17.7333 18.6416 17.7428 18.6319 17.7525C18.523 17.8618 18.3852 18.0001 18.2196 18.1187L17.5133 17.1322L18.2196 18.1187C17.6288 18.5417 16.8255 18.6787 16.1278 18.4753C15.9333 18.4186 15.7731 18.3414 15.6485 18.2813C15.6386 18.2766 15.629 18.2719 15.6196 18.2674C13.7391 17.3645 11.9778 16.1342 10.4218 14.5782C8.86582 13.0222 7.63546 11.2609 6.73257 9.38039C6.72805 9.37098 6.72341 9.36135 6.71866 9.35149C6.6586 9.2269 6.58139 9.06674 6.52467 8.87216L7.68946 8.53262L6.52467 8.87216C6.32129 8.17448 6.45826 7.37122 6.88134 6.78037L6.88134 6.78037C6.99988 6.61483 7.13822 6.47699 7.24749 6.36812C7.25722 6.35842 7.26673 6.34895 7.27596 6.33971C7.74394 5.87174 7.83975 5.76652 7.89161 5.68677L7.89161 5.68677C8.15306 5.28464 8.15306 4.76622 7.89161 4.36409C7.83975 4.28433 7.74393 4.17911 7.27596 3.71114L7.03954 3.47471C6.32732 2.76249 6.1659 2.62264 6.03642 2.55715ZM3.846 0.39183C4.87891 -0.13061 6.09873 -0.13061 7.13163 0.39183C7.65649 0.6573 8.11214 1.11411 8.63923 1.64256C8.67754 1.68097 8.71624 1.71976 8.75536 1.75888L8.99179 1.99531C9.01757 2.02109 9.04311 2.04659 9.06839 2.07183C9.41619 2.41904 9.71578 2.71812 9.92596 3.0414L8.90879 3.70274L9.92597 3.0414C10.7103 4.2478 10.7103 5.80305 9.92596 7.00945C9.71578 7.33273 9.41619 7.63181 9.06839 7.97902C9.04311 8.00426 9.01757 8.02976 8.99179 8.05554C8.9219 8.12543 8.88624 8.16128 8.8614 8.18755C8.86095 8.18953 8.8605 8.19171 8.8601 8.19408C8.85965 8.19671 8.85933 8.19914 8.85909 8.20134C8.86309 8.21021 8.8685 8.22194 8.87596 8.2378C8.88762 8.26258 8.90133 8.29113 8.92005 8.33013C9.70603 9.96717 10.7779 11.5027 12.1376 12.8624C13.4973 14.2221 15.0328 15.294 16.6699 16.0799L16.1447 17.1737L16.6699 16.08C16.7089 16.0987 16.7374 16.1124 16.7622 16.124C16.7781 16.1315 16.7898 16.1369 16.7987 16.1409C16.8009 16.1407 16.8033 16.1403 16.8059 16.1399C16.8083 16.1395 16.8105 16.139 16.8125 16.1386C16.8387 16.1138 16.8746 16.0781 16.9445 16.0082C16.9702 15.9824 16.9957 15.9569 17.021 15.9316C17.3682 15.5838 17.6673 15.2842 17.9905 15.074C19.1969 14.2897 20.7522 14.2897 21.9586 15.074C22.2819 15.2842 22.581 15.5838 22.9282 15.9316C22.9534 15.9569 22.9789 15.9824 23.0047 16.0082L22.1468 16.8661L23.0047 16.0082L23.2411 16.2446C23.2802 16.2838 23.319 16.3224 23.3574 16.3608C23.8859 16.8879 24.3427 17.3435 24.6082 17.8684C25.1306 18.9013 25.1306 20.1211 24.6082 21.154C24.3427 21.6789 23.8859 22.1345 23.3574 22.6616C23.319 22.6999 23.2802 22.7386 23.2411 22.7777L23.0499 22.969C23.0222 22.9967 22.9948 23.0241 22.9677 23.0512C22.4032 23.6162 21.9704 24.0496 21.3855 24.3781C20.7183 24.7529 19.7595 25.0023 18.9942 25C18.3246 24.998 17.8363 24.8592 17.2066 24.6802C17.184 24.6738 17.1612 24.6674 17.1383 24.6608C13.264 23.5612 9.6085 21.4861 6.56121 18.4388C3.51391 15.3915 1.43879 11.736 0.339166 7.86174C0.332646 7.83877 0.326174 7.816 0.319754 7.79341C0.140789 7.16372 0.00200693 6.67541 1.54736e-05 6.00582C-0.00226206 5.24052 0.247072 4.28175 0.621887 3.61452L0.621889 3.61451C0.950441 3.02964 1.38377 2.59676 1.94883 2.03227C1.97592 2.00521 2.00332 1.97784 2.03102 1.95014L2.22227 1.75888C2.26139 1.71976 2.30009 1.68097 2.3384 1.64256C2.8655 1.11411 3.32114 0.6573 3.846 0.391831L4.3874 1.46223L3.846 0.39183Z" fill="#415861"/>
</svg>